<svg id="Group_25" data-name="Group 25" xmlns="http://www.w3.org/2000/svg" width="16.326" height="11.661" viewBox="0 0 16.326 11.661">
  <path id="Path_21" data-name="Path 21" d="M-2022.66,1444.142h-12.827a1.749,1.749,0,0,0-1.749,1.749v8.163a1.749,1.749,0,0,0,1.749,1.749h12.827a1.749,1.749,0,0,0,1.75-1.749v-8.163A1.749,1.749,0,0,0-2022.66,1444.142Zm.583,6.755-3.669-3.669a.583.583,0,0,0-.824,0l-4.835,4.835-1.92-1.92a.582.582,0,0,0-.824,0l-1.921,1.92v-6.172a.583.583,0,0,1,.583-.583h12.827a.583.583,0,0,1,.583.583v5.006Z" transform="translate(2037.236 -1444.142)" fill="#dfdfdf"/>
</svg>
