<svg id="Group_1025" data-name="Group 1025" xmlns="http://www.w3.org/2000/svg" width="21" height="21" viewBox="0 0 21 21">
  <g id="Group_1018" data-name="Group 1018" transform="translate(0 0)">
    <circle id="Ellipse_40" data-name="Ellipse 40" cx="10.5" cy="10.5" r="10.5" opacity="0.17"/>
    <path id="Path_288" data-name="Path 288" d="M-1684.5,3651.155a1.223,1.223,0,0,1,.415-.576q1.9-1.713,3.783-3.435c.043-.039.084-.08.14-.134l-.791-.721-3.248-2.956a.708.708,0,0,1-.241-.719.656.656,0,0,1,.5-.53.614.614,0,0,1,.593.161l3.238,2.942q.68.618,1.358,1.236a.743.743,0,0,1-.008,1.184q-2.3,2.08-4.589,4.162a2.659,2.659,0,0,1-.307.21h-.312a.816.816,0,0,1-.529-.595Z" transform="translate(1692.793 -3636.217)" fill="#fff" opacity="0.999"/>
  </g>
</svg>
