<svg xmlns="http://www.w3.org/2000/svg" width="21.477" height="12.54" viewBox="0 0 21.477 12.54">
  <path id="Path_338" data-name="Path 338" d="M483,467.19a6.542,6.542,0,0,1,.516-.668q3.172-3.189,6.357-6.364a.913.913,0,0,1,1.472,0q1.78,1.779,3.557,3.56a1.2,1.2,0,0,1,.122.168l6.337-6.337h-.213c-.972,0-1.943,0-2.914,0a.883.883,0,0,1-.89-1.1.867.867,0,0,1,.826-.68c.4-.011.8,0,1.2,0q2.1-.006,4.193-.012a.893.893,0,0,1,.919.909q0,2.663,0,5.326a.867.867,0,0,1-.5.834.852.852,0,0,1-.93-.08.921.921,0,0,1-.367-.8q0-1.415,0-2.831v-.224l-.07-.053a1.388,1.388,0,0,1-.14.2q-3.319,3.323-6.641,6.644a.924.924,0,0,1-1.5,0q-1.779-1.779-3.557-3.559a1.446,1.446,0,0,1-.126-.168l-.091-.031a1.035,1.035,0,0,1-.131.216q-2.91,2.917-5.825,5.828a.9.9,0,0,1-1.562-.306.2.2,0,0,0-.037-.045Z" transform="translate(-483 -455.758)" fill="#fd9225"/>
</svg>
