<svg id="Group_1251" data-name="Group 1251" xmlns="http://www.w3.org/2000/svg" width="20" height="20" viewBox="0 0 20 20">
  <circle id="Ellipse_250" data-name="Ellipse 250" cx="10" cy="10" r="10" fill="#ff9200"/>
  <path id="Path_315" data-name="Path 315" d="M0,8.423a1.134,1.134,0,0,1,.384-.534Q2.14,6.3,3.889,4.707c.04-.036.078-.074.13-.124l-.733-.668L.277,1.177A.656.656,0,0,1,.053.511.608.608,0,0,1,.515.02a.569.569,0,0,1,.549.15l3,2.726q.629.572,1.258,1.145a.688.688,0,0,1-.008,1.1Q3.188,7.065,1.063,8.994a2.461,2.461,0,0,1-.284.195H.49A.756.756,0,0,1,0,8.637Z" transform="translate(14.186 7.934) rotate(90)" fill="#fff"/>
</svg>
