<?xml version="1.0" ?><svg width="512px" height="512px" viewBox="0 0 512 512" style="enable-background:new 0 0 512 512;" version="1.1" xml:space="preserve" xmlns="http://www.w3.org/2000/svg" xmlns:xlink="http://www.w3.org/1999/xlink"><style type="text/css">
	.st0{fill:#16ADE1;}
	.st1{fill:#1B3954;}
</style><g id="Layer_1"/><g id="Layer_2"><g><path class="st1" d="M256,86.4c-83.6,0-151.7,68-151.7,151.7v160.8h36.6V238.1c0-63.5,51.6-115.1,115.1-115.1    c63.5,0,115.1,51.6,115.1,115.1v160.8h36.6V238.1C407.7,154.5,339.6,86.4,256,86.4z"/><path class="st0" d="M41.9,336.3c0,31.1,22.7,56.9,52.4,61.8V274.4c-13.2,2.2-25,8.5-34,17.5C48.9,303.3,41.9,318.9,41.9,336.3z"/><path class="st0" d="M451.7,291.9c-9.1-9-20.9-15.4-34.1-17.5v123.7c29.7-4.9,52.4-30.7,52.4-61.8    C470.1,318.9,463.1,303.3,451.7,291.9z"/><path class="st0" d="M256.9,247.9c-49.1,0-88.8,39.8-88.8,88.8c0,49.1,39.8,88.8,88.8,88.8s88.8-39.8,88.8-88.8    C345.7,287.7,306,247.9,256.9,247.9z M326.4,357.8c-1,1-2.3,1.5-3.5,1.5s-2.6-0.5-3.5-1.5l-31.5-31.5l-27.4,27.4c-2,2-5.1,2-7.1,0    L226,326.3l-31.5,31.5c-2,2-5.1,2-7.1,0c-2-2-2-5.1,0-7.1l35-35c2-2,5.1-2,7.1,0l27.4,27.4l27.4-27.4c2-2,5.1-2,7.1,0l35,35    C328.3,352.7,328.3,355.8,326.4,357.8z"/></g></g></svg>