<svg xmlns="http://www.w3.org/2000/svg" width="15.243" height="14.146" viewBox="0 0 15.243 14.146">
  <g id="Group_1027" data-name="Group 1027" transform="translate(0)">
    <path id="Path_295" data-name="Path 295" d="M-714.107,2199.475a1.425,1.425,0,0,1-.661.165,1.421,1.421,0,0,1-1.087-.508,1.412,1.412,0,0,1-.311-1.153l.249-1.454-1.056-1.03a1.411,1.411,0,0,1-.359-1.455,1.411,1.411,0,0,1,1.146-.966l1.46-.212.653-1.323a1.41,1.41,0,0,1,1.273-.792h.035a1.883,1.883,0,0,0-1.456-1.571,2.19,2.19,0,0,0-.507-.053q-3.79,0-7.58,0a1.907,1.907,0,0,0-1.961,1.962q0,5.476,0,10.952a1.132,1.132,0,0,0,.95,1.207.173.173,0,0,1,.042.024h.264a1.675,1.675,0,0,0,.786-.456q1.662-1.485,3.334-2.958a.49.49,0,0,1,.768-.008c1.169,1.037,2.334,2.079,3.513,3.1a2.85,2.85,0,0,0,.619.317h.231l.189-.053a1.14,1.14,0,0,0,.833-1.153q0-1.621,0-3.242l-.061-.032Z" transform="translate(724.271 -2189.122)" fill="#ff9200"/>
    <path id="Path_296" data-name="Path 296" d="M-484.527,2266.544a.591.591,0,0,0-.328-1.009l-1.583-.23a.591.591,0,0,1-.445-.323l-.708-1.434a.591.591,0,0,0-1.061,0l-.708,1.434a.591.591,0,0,1-.445.323l-1.583.23a.591.591,0,0,0-.328,1.009l1.145,1.116a.591.591,0,0,1,.17.523l-.27,1.577a.591.591,0,0,0,.858.624l1.416-.744a.591.591,0,0,1,.55,0l1.416.744a.591.591,0,0,0,.858-.624l-.27-1.577a.592.592,0,0,1,.17-.523Z" transform="translate(499.591 -2260.764)" fill="#ff9200"/>
  </g>
</svg>
