<svg xmlns="http://www.w3.org/2000/svg" width="14.965" height="14.145" viewBox="0 0 14.965 14.145">
  <g id="Group_1029" data-name="Group 1029" transform="translate(0)">
    <path id="Path_297" data-name="Path 297" d="M-712.994,3592.6a4.342,4.342,0,0,1,4.342-4.342l.09,0a1.889,1.889,0,0,0-1.473-1.72,2.231,2.231,0,0,0-.507-.052q-3.79,0-7.58,0a1.906,1.906,0,0,0-1.961,1.961q0,5.476,0,10.952a1.133,1.133,0,0,0,.95,1.207.21.21,0,0,1,.042.023h.264a1.671,1.671,0,0,0,.786-.456c1.108-.99,2.222-1.972,3.334-2.958a.49.49,0,0,1,.768-.007c1.169,1.036,2.334,2.078,3.513,3.1a2.848,2.848,0,0,0,.619.317h.231l.189-.052a1.141,1.141,0,0,0,.833-1.153q0-1.242,0-2.483h-.1A4.342,4.342,0,0,1-712.994,3592.6Z" transform="translate(720.083 -3586.484)" fill="#ff9200"/>
    <path id="Path_298" data-name="Path 298" d="M-478.107,3666.989a3.493,3.493,0,0,0-3.534,3.45,3.493,3.493,0,0,0,3.534,3.45,3.493,3.493,0,0,0,3.534-3.45A3.493,3.493,0,0,0-478.107,3666.989Zm2.276,2.313a.558.558,0,0,1-.177.281q-1.271,1.267-2.539,2.537a.368.368,0,0,1-.4.109.443.443,0,0,1-.156-.1q-.649-.643-1.293-1.291a.369.369,0,0,1,.03-.572.375.375,0,0,1,.5.052l.994.994a.414.414,0,0,1,.039.056.533.533,0,0,1,.04-.054l2.309-2.307a.371.371,0,0,1,.4-.11.362.362,0,0,1,.251.273c0,.01.006.02.009.03Z" transform="translate(489.538 -3664.323)" fill="#ff9200"/>
  </g>
</svg>
