<svg xmlns="http://www.w3.org/2000/svg" width="32.078" height="27.943" viewBox="0 0 32.078 27.943">
  <path id="Path_237" data-name="Path 237" d="M1692.365,956h.188c.16.042.32.082.479.126a34.325,34.325,0,0,1,3.685,1.06c1.928.782,3.791,1.723,5.685,2.59a1.237,1.237,0,0,1,.676.61v.313c-.051.112-.1.227-.155.337q-1.25,2.47-2.5,4.938a.777.777,0,0,1-1.1.47c-.8-.235-1.6-.476-2.4-.713-.114-.034-.23-.059-.379-.1v.449q0,8.426,0,16.853c0,.62-.114.789-.673,1.008h-17.668c-.57-.223-.675-.383-.675-1.037q0-8.427,0-16.853v-.425c-.169.047-.288.078-.407.113-.82.242-1.638.489-2.459.724a.718.718,0,0,1-.961-.409q-1.357-2.676-2.7-5.357v-.313a1.251,1.251,0,0,1,.675-.61c1.526-.7,3.057-1.381,4.567-2.111a17.474,17.474,0,0,1,3.344-1.2c.645-.163,1.293-.31,1.94-.464h.188a.976.976,0,0,1,.693.794,4.8,4.8,0,0,0,9.265,0A.976.976,0,0,1,1692.365,956Z" transform="translate(-1671 -956)"/>
</svg>
