<svg xmlns="http://www.w3.org/2000/svg" width="16.522" height="16.294" viewBox="0 0 16.522 16.294">
  <path id="Path_120" data-name="Path 120" d="M-334.43,2502.406a6.417,6.417,0,0,1,2.552.719,19.379,19.379,0,0,1,4.385,2.971,23.884,23.884,0,0,1,4.946,5.717,10.179,10.179,0,0,1,1.305,3,3.446,3.446,0,0,1,.089.861,1.663,1.663,0,0,1-.5,1.193c-.452.439-.887.9-1.333,1.343a1.49,1.49,0,0,1-2.194.006q-.947-.914-1.881-1.842a1.472,1.472,0,0,1-.04-2.148c.226-.236.449-.478.692-.7a1,1,0,0,0,.29-1.033,4.46,4.46,0,0,0-.855-1.731,10.341,10.341,0,0,0-3.645-3.186,3.583,3.583,0,0,0-.512-.2,1.173,1.173,0,0,0-1.427.348,6.231,6.231,0,0,1-.6.614,1.485,1.485,0,0,1-2.106,0q-.989-.943-1.953-1.913a1.455,1.455,0,0,1-.049-2.074c.483-.512.983-1.01,1.485-1.5A1.762,1.762,0,0,1-334.43,2502.406Z" transform="translate(337.673 -2502.406)" fill="#e33737"/>
</svg>
