<svg id="Group_200" data-name="Group 200" xmlns="http://www.w3.org/2000/svg" width="10.562" height="8.872" viewBox="0 0 10.562 8.872">
  <path id="Path_93" data-name="Path 93" d="M-44.211-10H-51.7a1.538,1.538,0,0,0-1.538,1.538v4.106A1.538,1.538,0,0,0-51.7-2.818h1.878a.211.211,0,0,1,.15.062L-48.1-1.19a.211.211,0,0,0,.3,0l1.566-1.566a.211.211,0,0,1,.15-.062h1.878a1.538,1.538,0,0,0,1.538-1.538V-8.462A1.538,1.538,0,0,0-44.211-10Z" transform="translate(53.235 10)" fill="#fff"/>
  <g id="Group_113" data-name="Group 113" transform="translate(2.043 1.338)">
    <g id="Group_4" data-name="Group 4" transform="translate(0 0)">
      <path id="Path_4" data-name="Path 4" d="M13.661,122a.54.54,0,0,0-.225.051,1.429,1.429,0,0,1-1.18,0A.542.542,0,0,0,12.03,122h-.258a.537.537,0,0,0-.537.537v1.074a.537.537,0,0,0,.537.537H13.92a.537.537,0,0,0,.537-.537v-1.074A.537.537,0,0,0,13.92,122Z" transform="translate(-11.235 -119.852)" fill="#f40000"/>
      <path id="Path_5" data-name="Path 5" d="M39.3,42.453a.895.895,0,1,0-.958-.893A.9.9,0,0,0,39.3,42.453Z" transform="translate(-37.63 -40.666)" fill="#f40000"/>
    </g>
    <g id="Group_5" data-name="Group 5" transform="translate(5.053 1.009)">
      <path id="Path_6" data-name="Path 6" d="M204.1,80.749v.4h-1.524a1.049,1.049,0,0,1,.148-.434,2.888,2.888,0,0,1,.489-.544,3.075,3.075,0,0,0,.361-.371.478.478,0,0,0,.09-.266.3.3,0,0,0-.078-.224.332.332,0,0,0-.432,0,.421.421,0,0,0-.093.272l-.433-.043a.71.71,0,0,1,.243-.515.816.816,0,0,1,.511-.156.738.738,0,0,1,.528.181.594.594,0,0,1,.192.45.784.784,0,0,1-.055.292,1.186,1.186,0,0,1-.174.29,2.784,2.784,0,0,1-.285.289q-.206.189-.261.251a.749.749,0,0,0-.089.121Z" transform="translate(-202.581 -78.875)" fill="#f40000"/>
    </g>
  </g>
</svg>
