<?xml version="1.0" encoding="iso-8859-1"?>
<!-- Generator: Adobe Illustrator 18.1.1, SVG Export Plug-In . SVG Version: 6.00 Build 0)  -->
<svg version="1.1" id="Capa_1" xmlns="http://www.w3.org/2000/svg" xmlns:xlink="http://www.w3.org/1999/xlink" x="0px" y="0px"
	 viewBox="0 0 264.589 264.589" style="enable-background:new 0 0 264.589 264.589;" xml:space="preserve">
<g>
	<path style="fill:#010002;" d="M190.367,106.271c1.512,0.544,2.154,1.735-0.326,4.281l-41.832,42.066
		c-6.353,6.391-12.575,13.32-14.631,13.391c-2.056,0.065-8.159-7.093-14.511-13.483l-41.522-41.816c0,0-5.678-4.737,5.493-4.737
		c0,0,5.809,0,12.978,0c7.163,0,12.967-7.305,12.956-16.317l-0.06-49.664c0.517-10.187,10.992-10.166,10.992-10.166l27.571,0.011
		c10.361,0.337,10.541,10.867,10.541,10.867l-0.049,48.952c-0.011,9.013,6.027,16.317,13.483,16.317
		C178.907,105.977,187.528,105.254,190.367,106.271z"/>
	<path style="fill:#010002;" d="M0,121.544c0-40.309,20.386-75.391,50.975-98.246c7.218-5.39,21.68-7.789,27.494-0.897
		c3.601,4.259,4.884,9.388,5.037,14.256c0.277,9.007-9.056,19.972-15.48,26.287c-15.344,15.099-25.014,35.571-25.014,58.715
		c0,48.419,39.248,85.121,87.661,85.121c48.429,0,87.689-36.703,87.689-85.121c0-24.677-9.42-46.341-25.069-61.668
		c-6.44-6.304-15.164-17.449-13.761-26.352c0.805-5.14,3.03-10.231,7.887-13.897c7.19-5.428,21.593-1.55,28.702,3.981
		c29.36,22.85,48.467,57.768,48.467,97.811c0,70.953-62.919,125.925-133.899,125.925C59.743,247.469,0,192.496,0,121.544z"/>
</g>
<g>
</g>
<g>
</g>
<g>
</g>
<g>
</g>
<g>
</g>
<g>
</g>
<g>
</g>
<g>
</g>
<g>
</g>
<g>
</g>
<g>
</g>
<g>
</g>
<g>
</g>
<g>
</g>
<g>
</g>
</svg>
