<svg xmlns="http://www.w3.org/2000/svg" width="16.504" height="16.002" viewBox="0 0 16.504 16.002">
  <path id="Path_345" data-name="Path 345" d="M721.258,247.561a2.34,2.34,0,0,1,.962-.612,2.228,2.228,0,0,1,.557-.113,1.112,1.112,0,0,0,.25,0c.013-.005-.21-.047-.114-.014.042.014.088.021.13.033l.09.03c.122.04.007,0-.009-.006.067.045.149.077.219.119.093.056.044.056-.005-.009a1.383,1.383,0,0,0,.126.119c.1.1-.016-.051.011.015a1.049,1.049,0,0,0,.063.114c-.093-.159.029.022,0,.035,0,0,.028.133.008.02s0,.025,0,.048c0,.043-.016.227.006.078a1.705,1.705,0,0,1-.049.218,1.527,1.527,0,0,1-.18.419c-.463.834-1.082,1.587-1.595,2.391a11.245,11.245,0,0,0-1.288,2.629,5.6,5.6,0,0,0-.1,2.933,2.385,2.385,0,0,0,1.651,1.908,3.025,3.025,0,0,0,2.755-1.141,22.386,22.386,0,0,0,1.915-2.37,8.443,8.443,0,0,1,1.857-2,3.676,3.676,0,0,1,1.151-.561,2.456,2.456,0,0,1,1.013-.055,1.758,1.758,0,0,1,1.489,1.332,9.675,9.675,0,0,1,.378,3.014,8.247,8.247,0,0,1-.516,2.872,2.327,2.327,0,0,1-.636.889,2.092,2.092,0,0,1-.95.411,2.161,2.161,0,0,1-.965-.06,2.013,2.013,0,0,1-.482-.234c-.115-.069.028.029.018.017-.028-.03-.066-.055-.1-.083s-.059-.057-.087-.087-.032-.039-.05-.056c-.086-.09.063.114,0,0-.024-.044-.054-.085-.079-.13-.015-.027-.027-.055-.041-.081-.041-.077.034.1.007.016-.02-.066-.043-.13-.059-.2-.009-.036-.016-.072-.022-.108-.017-.1,0,.144,0-.038a2.586,2.586,0,0,1,.855-1.985,6.015,6.015,0,0,1,2.308-1.23,8.243,8.243,0,0,1,2.805-.37,7.76,7.76,0,0,1,1.347.176.64.64,0,0,0,.769-.437.632.632,0,0,0-.437-.769,9.439,9.439,0,0,0-6.336.819,4.777,4.777,0,0,0-2.177,2.031,3.194,3.194,0,0,0-.156,2.681,2.939,2.939,0,0,0,3.522,1.256,3.342,3.342,0,0,0,2.12-2.028,9.5,9.5,0,0,0,.59-3.32,10.536,10.536,0,0,0-.451-3.384,3.013,3.013,0,0,0-2.049-2.05c-2.092-.627-3.961.848-5.172,2.4-.672.86-1.275,1.767-2.015,2.573a3.894,3.894,0,0,1-1.138.974,1.188,1.188,0,0,1-.521.123.761.761,0,0,1-.256-.043s-.205-.114-.155-.076a1.5,1.5,0,0,1-.5-.926,2.551,2.551,0,0,1-.078-.493,5.866,5.866,0,0,1-.011-.85,6.526,6.526,0,0,1,1.071-2.8c.532-.891,1.159-1.719,1.722-2.591a2.4,2.4,0,0,0,.379-2.3,1.96,1.96,0,0,0-1.154-.956,2.651,2.651,0,0,0-1.821.147,3.679,3.679,0,0,0-1.282.849c-.561.577.322,1.462.884.884Z" transform="translate(-720.195 -245.576)" fill="#fff"/>
</svg>
