<svg xmlns="http://www.w3.org/2000/svg" width="19.013" height="19.014" viewBox="0 0 19.013 19.014">
  <g id="Group_1356" data-name="Group 1356" transform="translate(120.54 -5142.532)">
    <path id="Path_477" data-name="Path 477" d="M-119.092,5142.532h11.326a.232.232,0,0,0,.049.024,1.666,1.666,0,0,1,1.4,1.746c0,1.479,0,2.958,0,4.437a.413.413,0,0,1-.136.322q-2.262,2.254-4.515,4.517a2.022,2.022,0,0,0-.4.529q-.771,1.6-1.509,3.223a1.585,1.585,0,0,0,0,1.333,1.652,1.652,0,0,0,2.207.852c1.07-.483,2.132-.984,3.191-1.491a2.377,2.377,0,0,0,.52-.381c.21-.185.4-.391.637-.62v.19c0,.873,0,1.745,0,2.618a1.666,1.666,0,0,1-1.712,1.714q-5.4,0-10.805,0a1.929,1.929,0,0,1-.581-.1,1.635,1.635,0,0,1-1.122-1.566q0-7.844,0-15.687c0-.013,0-.025,0-.037a1.554,1.554,0,0,1,.662-1.269A4.659,4.659,0,0,1-119.092,5142.532Zm5.661,4.716h.111q2,0,4.007,0a.566.566,0,0,0,.56-.32.555.555,0,0,0-.547-.795h-8.237a.549.549,0,0,0-.528.31.554.554,0,0,0,.533.8Q-115.481,5147.251-113.431,5147.248Zm-.85,1.857q-1.614,0-3.228,0a.582.582,0,0,0-.5.226.517.517,0,0,0-.055.575.548.548,0,0,0,.526.314h6.455a.56.56,0,0,0,.547-.311.553.553,0,0,0-.533-.8C-112.141,5149.1-113.211,5149.105-114.281,5149.105Zm-.913,2.971h-2.337a.554.554,0,0,0-.549.337.557.557,0,0,0,.559.776q2.318,0,4.636,0a.564.564,0,0,0,.624-.562.566.566,0,0,0-.634-.551Z" transform="translate(0)" fill="#fff"/>
    <path id="Path_478" data-name="Path 478" d="M295.728,5297.2a1.7,1.7,0,0,1-.542.822c-.224.213-.428.446-.624.651l-2.5-2.5c.292-.3.592-.661.939-.963a1.054,1.054,0,0,1,1.411.04c.359.332.707.676,1.033,1.04a2.378,2.378,0,0,1,.278.536Z" transform="translate(-397.255 -146.757)" fill="#fff"/>
    <path id="Path_479" data-name="Path 479" d="M117.584,5349.309l2.487,2.488c-.438.452-.883.925-1.342,1.383q-1.374,1.369-2.763,2.723a1.481,1.481,0,0,1-.391.271c-.977.463-1.956.922-2.941,1.367a.793.793,0,0,1-.479.051.535.535,0,0,1-.314-.78c.33-.719.7-1.423.995-2.153a5.487,5.487,0,0,1,1.335-1.905c1.125-1.079,2.212-2.2,3.314-3.3A.843.843,0,0,0,117.584,5349.309Z" transform="translate(-223.674 -199.083)" fill="#fff"/>
  </g>
</svg>
