<svg xmlns="http://www.w3.org/2000/svg" width="16.784" height="16.784" viewBox="0 0 16.784 16.784">
  <g id="Group_931" data-name="Group 931" transform="translate(-603.039 -249.5)">
    <path id="Path_340" data-name="Path 340" d="M614.467,249.5H608.4a5.363,5.363,0,0,0-5.356,5.357v6.071a5.363,5.363,0,0,0,5.356,5.357h6.339l5.089-5.089v-6.339A5.363,5.363,0,0,0,614.467,249.5ZM604.33,260.928v-6.071a4.07,4.07,0,0,1,4.065-4.065h6.071a4.07,4.07,0,0,1,4.065,4.065v5.08h-1.055a3.79,3.79,0,0,0-3.786,3.786v1.271h-5.3A4.07,4.07,0,0,1,604.33,260.928Zm13.635.3-2.983,2.984v-.488a2.5,2.5,0,0,1,2.495-2.5Z" fill="#fff"/>
    <circle id="Ellipse_349" data-name="Ellipse 349" cx="1.184" cy="1.184" r="1.184" transform="translate(607.45 254.772)" fill="#fff"/>
    <circle id="Ellipse_350" data-name="Ellipse 350" cx="1.184" cy="1.184" r="1.184" transform="translate(613.045 254.772)" fill="#fff"/>
    <path id="Path_341" data-name="Path 341" d="M632.286,295.648l-.994-.512a3.033,3.033,0,0,1-2.715,1.348,3.09,3.09,0,0,1-2.686-1.293l-.974.549a4.165,4.165,0,0,0,3.659,1.862A4.1,4.1,0,0,0,632.286,295.648Z" transform="translate(-17.17 -35.816)" fill="#fff"/>
  </g>
</svg>
