<svg id="Group_335" data-name="Group 335" xmlns="http://www.w3.org/2000/svg" width="11" height="9.855" viewBox="0 0 11 9.855">
  <path id="Path_107" data-name="Path 107" d="M657.6,1589.279c-.291.267-1.588,1.456-2.552,2.344a.5.5,0,0,1-.548.128.479.479,0,0,1-.325-.425.511.511,0,0,1,.19-.444c.554-.507,1.733-1.589,2.353-2.159.023-.021.047-.04.071-.059l-.008-.028h-.107c-.287,0-.573,0-.86,0a.5.5,0,0,1-.509-.437.5.5,0,0,1,.358-.546.7.7,0,0,1,.186-.021q1.1,0,2.2,0a.511.511,0,0,1,.555.555q0,1.059,0,2.118a.5.5,0,1,1-1,.02c0-.3,0-.6,0-.9C657.6,1589.383,657.6,1589.346,657.6,1589.279Z" transform="translate(-647.61 -1587.629)" fill="#575757"/>
  <g id="Group_334" data-name="Group 334" transform="translate(0 0.002)">
    <path id="Path_108" data-name="Path 108" d="M504.267,1720.851c.291-.267,1.588-1.456,2.552-2.344a.5.5,0,0,1,.548-.128.479.479,0,0,1,.325.425.511.511,0,0,1-.19.444c-.554.507-1.733,1.589-2.353,2.159-.023.021-.047.039-.071.059l.008.028h.107c.287,0,.573,0,.86,0a.5.5,0,0,1,.509.437.5.5,0,0,1-.358.547.694.694,0,0,1-.186.021q-1.1,0-2.2,0a.511.511,0,0,1-.555-.555q0-1.059,0-2.118a.5.5,0,1,1,1-.02c0,.3,0,.6,0,.9Z" transform="translate(-503.26 -1712.647)" fill="#575757"/>
    <path id="Path_109" data-name="Path 109" d="M504.269,1589.97a1.26,1.26,0,0,1,1.3-1.295h2.275c.28,0,.559,0,.839,0a.51.51,0,0,0,.5-.33.5.5,0,0,0-.49-.675q-1.588,0-3.177,0a2.093,2.093,0,0,0-.412.04,2.265,2.265,0,0,0-1.842,2.272q0,.979,0,1.958a.5.5,0,0,0,.5.5h0a.5.5,0,0,0,.5-.5Q504.267,1590.955,504.269,1589.97Z" transform="translate(-503.26 -1587.668)" fill="#575757"/>
  </g>
  <path id="Path_110" data-name="Path 110" d="M641.649,1696.681a.534.534,0,0,0-.006-.072.5.5,0,0,0-.548-.428.5.5,0,0,0-.451.544c0,.734,0,1.468,0,2.2a1.26,1.26,0,0,1-1.3,1.3H637a.5.5,0,0,0-.5.5h0a.5.5,0,0,0,.5.5q1.139,0,2.277,0a3.472,3.472,0,0,0,.449-.028,2.249,2.249,0,0,0,1.905-2.068C641.664,1698.317,641.647,1697.5,641.649,1696.681Z" transform="translate(-630.652 -1691.376)" fill="#575757"/>
</svg>
