<svg xmlns="http://www.w3.org/2000/svg" width="16" height="16" viewBox="0 0 16 16">
  <g id="Group_1036" data-name="Group 1036" transform="translate(1761.178 397.34)">
    <circle id="Ellipse_357" data-name="Ellipse 357" cx="8" cy="8" r="8" transform="translate(-1761.178 -397.34)" fill="#fd9225"/>
    <g id="Group_1035" data-name="Group 1035" transform="translate(-1759.216 -393.248)">
      <path id="Path_353" data-name="Path 353" d="M-1672.745-234.015a1.779,1.779,0,0,1-.487.723,10.85,10.85,0,0,1-2.717,2.24,5.893,5.893,0,0,1-2.374.782,5.159,5.159,0,0,1-2.377-.351,8.78,8.78,0,0,1-2.853-1.884c-.369-.352-.713-.732-1.053-1.112a.778.778,0,0,1-.025-1.047,10.59,10.59,0,0,1,3.16-2.666,5.824,5.824,0,0,1,2.392-.723,5.394,5.394,0,0,1,2.709.58,9.931,9.931,0,0,1,2.874,2.165c.119.125.233.256.349.384a1.534,1.534,0,0,1,.4.626Zm-3.436-.137a2.6,2.6,0,0,0-2.595-2.608,2.6,2.6,0,0,0-2.6,2.6,2.6,2.6,0,0,0,2.594,2.609A2.6,2.6,0,0,0-1676.18-234.152Z" transform="translate(1684.82 238.064)" fill="#f0f0f0"/>
      <path id="Path_354" data-name="Path 354" d="M-1518.346-156.631a1.867,1.867,0,0,1-1.859,1.863,1.867,1.867,0,0,1-1.859-1.863,1.866,1.866,0,0,1,1.859-1.863A1.866,1.866,0,0,1-1518.346-156.631Z" transform="translate(1526.247 160.539)" fill="#f0f0f0"/>
    </g>
  </g>
</svg>
