<?xml version="1.0" encoding="iso-8859-1"?>
<!-- Generator: Adobe Illustrator 19.0.0, SVG Export Plug-In . SVG Version: 6.00 Build 0)  -->
<svg version="1.1" id="Layer_1" xmlns="http://www.w3.org/2000/svg" xmlns:xlink="http://www.w3.org/1999/xlink" x="0px" y="0px"
	 viewBox="0 0 512 512" style="enable-background:new 0 0 512 512;" xml:space="preserve">
<g id="SVGCleanerId_0">
	<g>
		<rect x="105.467" y="117.785" width="241.857" height="29.824"/>
	</g>
</g>
<g>
	<g>
		<rect x="105.467" y="117.785" width="241.857" height="29.824"/>
	</g>
</g>
<g>
	<g>
		<path d="M92.772,60.834H41.916V512h368.966v-33.526V60.834H92.772z M347.329,455.052H105.471v-29.824h241.858V455.052z
			 M347.329,403.811H105.471v-29.824h241.858V403.811z M347.329,352.57H105.471v-29.824h241.858V352.57z M347.329,301.329H105.471
			v-29.824h241.858V301.329z M347.329,250.088H105.471v-29.824h241.858V250.088z M347.329,198.847H105.471v-29.824h241.858V198.847z
			 M347.329,147.606H105.471v-29.824h241.858V147.606z"/>
	</g>
</g>
<g>
	<g>
		<polygon points="93.783,0 93.783,30.417 441.3,30.417 441.3,477.807 470.084,477.807 470.084,30.417 470.084,0 		"/>
	</g>
</g>
<g>
</g>
<g>
</g>
<g>
</g>
<g>
</g>
<g>
</g>
<g>
</g>
<g>
</g>
<g>
</g>
<g>
</g>
<g>
</g>
<g>
</g>
<g>
</g>
<g>
</g>
<g>
</g>
<g>
</g>
</svg>
