<?xml version="1.0" encoding="iso-8859-1"?>
<!-- Generator: Adobe Illustrator 19.0.0, SVG Export Plug-In . SVG Version: 6.00 Build 0)  -->
<svg version="1.1" id="Layer_1" xmlns="http://www.w3.org/2000/svg" xmlns:xlink="http://www.w3.org/1999/xlink" x="0px" y="0px"
	 viewBox="0 0 504 504" style="enable-background:new 0 0 504 504;" xml:space="preserve">
<g>
	<g>
		<path d="M464.388,139.778H39.136c-20.308,0-35.2,13.428-39.136,33.2v228.584c0,28.224,22.948,53.22,51.172,53.22h401.28
			c28.224,0,51.548-24.996,51.548-53.22V174.694C504,154.118,485.276,139.778,464.388,139.778z M351.064,376.03H152.408
			c-20.776,0-28.864-15.28-17.972-32.748l97.164-156.4c10.888-17.472,28.748-17.736,39.668-0.284l17.296,27.484l6.688,10.604
			L368.98,343.35C379.9,360.802,371.844,376.03,351.064,376.03z"/>
	</g>
</g>
<g>
	<g>
		<path d="M251.72,222.158c-8.584,0-15.744,7.216-15.744,16.08v56.344c0,8.868,7.156,16.084,15.744,16.084
			c8.592,0,15.756-7.216,15.756-16.084v-56.344C267.476,229.374,260.312,222.158,251.72,222.158z"/>
	</g>
</g>
<g>
	<g>
		<path d="M251.72,323.326c-8.584,0-15.572,6.988-15.572,15.576s6.984,15.58,15.572,15.58c8.592,0,15.58-6.992,15.58-15.58
			C267.296,330.314,260.312,323.326,251.72,323.326z"/>
	</g>
</g>
<g>
	<g>
		<path d="M452.452,92.53H265.448l-42.28-42.22c-0.74-0.74-1.74-1.092-2.784-1.092H51.172C22.948,49.218,0,70.274,0,98.498v39.876
			c11.812-10.1,23.836-14.344,39.136-14.344h425.248c15.252,0,29.08,6.108,39.068,16.16
			C501.564,113.674,479.444,92.53,452.452,92.53z"/>
	</g>
</g>
<g>
</g>
<g>
</g>
<g>
</g>
<g>
</g>
<g>
</g>
<g>
</g>
<g>
</g>
<g>
</g>
<g>
</g>
<g>
</g>
<g>
</g>
<g>
</g>
<g>
</g>
<g>
</g>
<g>
</g>
</svg>
