<svg xmlns="http://www.w3.org/2000/svg" width="12.511" height="12.5" viewBox="0 0 12.511 12.5">
  <g id="Group_1469" data-name="Group 1469" transform="translate(3033.575 -3255.04)">
    <path id="Path_515" data-name="Path 515" d="M-3021.1,3258.162a.8.8,0,0,0-.75-.583c-.265-.005-.529,0-.793,0h-.1a5.277,5.277,0,0,0,.173-.686,1.655,1.655,0,0,0-1.439-1.828c-.044,0-.088-.015-.132-.023h-.1c-.111.021-.224.036-.334.063a1.655,1.655,0,0,0-.737.429c-.363.345-.729.688-1.1,1.04a1.214,1.214,0,0,0-.9-.411,1.2,1.2,0,0,0-.91.413l-.455-.426c-.205-.193-.413-.383-.614-.581a1.641,1.641,0,0,0-1.061-.511.159.159,0,0,1-.045-.016h-.1a3.869,3.869,0,0,0-.666.188,1.67,1.67,0,0,0-.735,2.264c.011.021.02.044.038.085h-.9a.772.772,0,0,0-.58.253.814.814,0,0,0-.232.57q-.006.648,0,1.3a.414.414,0,0,0,.4.424c.036,0,.073,0,.11,0q5.741,0,11.483,0a.483.483,0,0,0,.515-.332v-1.5Zm-7.449-.592c-.029,0-.061.007-.093.007-.594,0-1.188,0-1.781,0a.831.831,0,0,1-.814-1.037.788.788,0,0,1,1.3-.435c.448.4.881.828,1.324,1.239A.193.193,0,0,1-3028.553,3257.569Zm5.164-.664a.84.84,0,0,1-.66.651.7.7,0,0,1-.121.017q-.946,0-1.892,0a.285.285,0,0,1-.052-.024c.026-.062.036-.142.08-.185q.631-.608,1.273-1.2a.782.782,0,0,1,1.029-.118A.844.844,0,0,1-3023.389,3256.905Z" transform="translate(0)" fill="#fff"/>
    <path id="Path_516" data-name="Path 516" d="M-3000.27,3488.116q0,3.017,0,6.034a.853.853,0,0,0,.917.909q1.874,0,3.748,0c.045,0,.09,0,.137-.006v-7.062h-4.8C-3000.266,3488.042-3000.27,3488.079-3000.27,3488.116Z" transform="translate(-32.457 -227.519)" fill="#fff"/>
    <path id="Path_517" data-name="Path 517" d="M-2739.514,3488.029h-4.793v7.067h.124q1.88,0,3.76,0a.853.853,0,0,0,.915-.924q0-3,0-6.008C-2739.507,3488.119-2739.512,3488.074-2739.514,3488.029Z" transform="translate(-282.403 -227.557)" fill="#fff"/>
  </g>
</svg>
