<svg id="Group_898" data-name="Group 898" xmlns="http://www.w3.org/2000/svg" width="31.741" height="28.23" viewBox="0 0 31.741 28.23">
  <path id="Path_200" data-name="Path 200" d="M1069.7,1012.642h-2.318c-.132-.02-.264-.044-.4-.06-.807-.1-1.621-.154-2.422-.29a21.187,21.187,0,0,1-7.679-2.977c-.838-.522-1.639-1.1-2.471-1.665l7.446-14.8a.546.546,0,0,0-.242-.733l-.7-.353a.546.546,0,0,0-.734.242l-3.149,6.252a.639.639,0,0,1-1.032.155l-3.123-3.262a.639.639,0,0,1-.075-.788c.752-1.164,2.877-4.424,3.98-6.117a8.359,8.359,0,0,1,4.1-3.337c.537-.205,1.106-.328,1.681-.494.216,1.07.4,2.075.622,3.07a5.534,5.534,0,0,0,4.966,4.345,5.468,5.468,0,0,0,5.505-3.387,15.716,15.716,0,0,0,.608-2.385c.124-.531.22-1.07.33-1.611a8.544,8.544,0,0,1,5.883,3.943c1.06,1.655,3.123,4.831,3.859,5.975a.638.638,0,0,1-.074.785l-3.083,3.243a.639.639,0,0,1-1.033-.151L1076.984,992a.546.546,0,0,0-.735-.24l-.7.356a.547.547,0,0,0-.239.734l7.466,14.732c-.1.078-.173.148-.257.2-.92.612-1.817,1.265-2.768,1.826a21.292,21.292,0,0,1-8.439,2.861C1070.775,1012.532,1070.237,1012.585,1069.7,1012.642Zm-1.1-15.964c-.11-.1-.2-.172-.279-.25a3.039,3.039,0,0,0-3.428-.518,3.572,3.572,0,0,0-1.637,4.552,5.54,5.54,0,0,0,1.377,1.919c.974.913,1.99,1.781,2.992,2.665.312.275.634.539.963.817.438-.372.861-.726,1.278-1.088a26.52,26.52,0,0,0,3.349-3.148,3.959,3.959,0,0,0,.939-3.079,3.3,3.3,0,0,0-3.428-2.939A3.029,3.029,0,0,0,1068.6,996.678Z" transform="translate(-1052.702 -984.412)"/>
  <path id="Path_201" data-name="Path 201" d="M1250.577,1199a18.285,18.285,0,0,1-3.231-3.071,1.911,1.911,0,0,1-.331-1.993,1.276,1.276,0,0,1,1.12-.83,1.187,1.187,0,0,1,1.175.63c.249.43.446.891.678,1.363.359,0,.744.01,1.129-.009a.342.342,0,0,0,.218-.189c.179-.385.306-.8.515-1.165a1.182,1.182,0,0,1,1.2-.629,1.281,1.281,0,0,1,1.1.855,1.941,1.941,0,0,1-.356,1.991,12.724,12.724,0,0,1-2.231,2.229C1251.249,1198.454,1250.925,1198.717,1250.577,1199Z" transform="translate(-1234.696 -1180.029)"/>
</svg>
