<svg xmlns="http://www.w3.org/2000/svg" width="19.39" height="16.36" viewBox="0 0 19.39 16.36">
  <g id="Group_343" data-name="Group 343" transform="translate(0 0)">
    <path id="Path_116" data-name="Path 116" d="M-504.087,2529.481a20.691,20.691,0,0,1-6.8-1.174.957.957,0,0,1-.714-.945c-.011-.792-.015-1.583.008-2.374a3.546,3.546,0,0,1,1.674-2.855,8.958,8.958,0,0,1,3.224-1.363.47.47,0,0,1,.3.054,4.609,4.609,0,0,0,4.588.008.515.515,0,0,1,.327-.06,8.849,8.849,0,0,1,3.387,1.495,3.586,3.586,0,0,1,1.51,3.036c-.011.643,0,1.286,0,1.929a1.006,1.006,0,0,1-.792,1.1A20.7,20.7,0,0,1-504.087,2529.481Z" transform="translate(515.969 -2513.122)" fill="#ff9200"/>
    <path id="Path_117" data-name="Path 117" d="M-502.354,2506a3.693,3.693,0,0,1,3.678-3.677,3.69,3.69,0,0,1,3.679,3.706,3.687,3.687,0,0,1-3.679,3.674A3.688,3.688,0,0,1-502.354,2506Z" transform="translate(510.552 -2502.327)" fill="#ff9200"/>
    <path id="Path_118" data-name="Path 118" d="M-513.24,2510.139a2.42,2.42,0,0,1,2.441,2.418,2.438,2.438,0,0,1-2.436,2.459,2.449,2.449,0,0,1-2.431-2.44A2.43,2.43,0,0,1-513.24,2510.139Z" transform="translate(518.346 -2506.901)" fill="#ff9200"/>
    <path id="Path_119" data-name="Path 119" d="M-517.592,2523.5a4.62,4.62,0,0,0-1.108,3.371c.026.6,0,1.2,0,1.863-.559-.105-1.083-.184-1.6-.307-.488-.117-.966-.278-1.446-.426a.507.507,0,0,1-.391-.553c.012-.445.021-.892,0-1.335a2.412,2.412,0,0,1,1.147-2.2,5.965,5.965,0,0,1,2.057-.876.351.351,0,0,1,.2,0C-518.356,2523.179-517.987,2523.337-517.592,2523.5Z" transform="translate(522.133 -2514.442)" fill="#ff9200"/>
  </g>
</svg>
