<svg xmlns="http://www.w3.org/2000/svg" width="16.29" height="15.352" viewBox="0 0 16.29 15.352">
  <g id="Group_1026" data-name="Group 1026" transform="translate(0)">
    <path id="Path_290" data-name="Path 290" d="M-723.879,1479.2a2.227,2.227,0,0,0-2.1-1.644c-.058,0-.115,0-.183,0a5.768,5.768,0,0,0-2.537-4.33,5.619,5.619,0,0,0-3.628-.985,5.794,5.794,0,0,0-5.4,5.3c-.181.018-.366.023-.545.058a2.207,2.207,0,0,0-1.788,1.835.711.711,0,0,1-.028.09v1.877a5.136,5.136,0,0,0,.145.516,2.393,2.393,0,0,0,2.722,1.436c.381-.044.5-.212.5-.6,0-1.553-.01-3.106.007-4.66a5.35,5.35,0,0,1,.15-1.257,4.753,4.753,0,0,1,5.416-3.52,4.73,4.73,0,0,1,3.907,3.953,12.672,12.672,0,0,1,.067,1.713c.009,1.278,0,2.555,0,3.833a.493.493,0,0,0,.531.538c.244,0,.488.007.731,0a2.2,2.2,0,0,0,1.983-1.491c.051-.149.083-.3.124-.456v-1.877C-723.827,1479.419-723.85,1479.311-723.879,1479.2Z" transform="translate(740.092 -1472.232)" fill="#ff9200"/>
    <path id="Path_291" data-name="Path 291" d="M-541.5,1874.046q-.659-.022-1.319,0a1.018,1.018,0,0,0-.988,1.023,1.017,1.017,0,0,0,1.014,1.01c.212,0,.424,0,.636,0s.424,0,.636,0a1.015,1.015,0,0,0,1-1A1.017,1.017,0,0,0-541.5,1874.046Z" transform="translate(550.309 -1860.73)" fill="#ff9200"/>
    <path id="Path_292" data-name="Path 292" d="M-674.092,1826.158h-.539c-.043,1.527,2.313,3.312,3.769,2.872v-.541A2.965,2.965,0,0,1-674.092,1826.158Z" transform="translate(676.8 -1814.437)" fill="#ff9200"/>
  </g>
</svg>
