<svg xmlns="http://www.w3.org/2000/svg" width="12.231" height="12.231" viewBox="0 0 12.231 12.231">
  <path id="Path_476" data-name="Path 476" d="M944.365,5541.241l-1.872-1.641a1.436,1.436,0,0,0-1.846-.039l-2.086,1.678a1.433,1.433,0,0,0-.536,1.119v5.917a1.436,1.436,0,0,0,1.436,1.437h3.958a1.436,1.436,0,0,0,1.436-1.437v-5.954A1.437,1.437,0,0,0,944.365,5541.241Zm-2.925.833a.551.551,0,1,1,.551-.551A.551.551,0,0,1,941.44,5542.074Z" transform="translate(3260.955 -4580.121) rotate(45)" fill="#fd9225"/>
</svg>
