<svg id="Group_1354" data-name="Group 1354" xmlns="http://www.w3.org/2000/svg" width="9.89" height="9.894" viewBox="0 0 9.89 9.894">
  <path id="Path_466" data-name="Path 466" d="M3072.627,4437.009h.251a.54.54,0,0,0,.062.02.76.76,0,0,1,.618.568,2.9,2.9,0,0,1,.09.58,8.534,8.534,0,0,1-.2,1.9c-.024.134-.053.268-.082.413h.129c.66,0,1.32.007,1.98,0a1.026,1.026,0,0,1,.974,1.432c-.024.057-.057.113-.086.169l.028-.015a3.415,3.415,0,0,1,.331.405,1.862,1.862,0,0,1,.136.4v.174a3.258,3.258,0,0,1-.1.349.831.831,0,0,0-.251,1.278,1.028,1.028,0,0,1-.538.663,1.022,1.022,0,0,1-.875,1.556c-.766,0-1.532,0-2.3,0a9.632,9.632,0,0,1-3.1-.5.1.1,0,0,1-.081-.115q0-2.561,0-5.12a.155.155,0,0,1,.067-.137,7.925,7.925,0,0,0,1.075-.968,3.113,3.113,0,0,0,.641-1.023c.165-.46.343-.915.524-1.368a1.644,1.644,0,0,1,.2-.349A.913.913,0,0,1,3072.627,4437.009Z" transform="translate(-3066.969 -4437.009)" fill="#fd9225"/>
  <path id="Path_467" data-name="Path 467" d="M2943.785,4647.4v4.88c-.037,0-.071.005-.1.005H2942.1c-.257,0-.366-.108-.366-.364q0-2.081,0-4.162c0-.251.107-.359.357-.359h1.7Z" transform="translate(-2941.73 -4643.056)" fill="#fd9225"/>
</svg>
