<svg id="Group_185" data-name="Group 185" xmlns="http://www.w3.org/2000/svg" width="27.278" height="14" viewBox="0 0 27.278 14">
  <path id="Path_89" data-name="Path 89" d="M9.309,114.676l-5.47-5.47a1.541,1.541,0,0,0-1.082-.449H-15.993a1.53,1.53,0,0,0-1.529,1.529v10.941a1.53,1.53,0,0,0,1.529,1.529H2.757a1.521,1.521,0,0,0,1.082-.449l5.47-5.47A1.53,1.53,0,0,0,9.309,114.676Z" transform="translate(17.522 -108.757)" fill="#ff9200"/>
  <circle id="Ellipse_123" data-name="Ellipse 123" cx="1.58" cy="1.58" r="1.58" transform="translate(20.471 5.42)"/>
  <g id="Group_111" data-name="Group 111" transform="translate(2.197 3.343)">
    <path id="Path_90" data-name="Path 90" d="M28.734,178.679H30.5a.3.3,0,0,1,.288.212l1.623,5.19,1.6-5.189a.3.3,0,0,1,.289-.213H36a.3.3,0,0,1,.283.407l-2.563,6.9a.3.3,0,0,1-.283.2H31.34a.3.3,0,0,1-.283-.2l-2.606-6.9A.3.3,0,0,1,28.734,178.679Z" transform="translate(-28.431 -178.679)" fill="#fff"/>
    <path id="Path_91" data-name="Path 91" d="M208.927,178.679h6.446a.3.3,0,0,1,.3.3v1.249a.3.3,0,0,1-.3.3H213.31v5.35a.3.3,0,0,1-.3.3h-1.715a.3.3,0,0,1-.3-.3v-5.35h-2.063a.3.3,0,0,1-.3-.3v-1.249A.3.3,0,0,1,208.927,178.679Z" transform="translate(-200.011 -178.679)" fill="#fff"/>
  </g>
</svg>
