<svg xmlns="http://www.w3.org/2000/svg" width="16.99" height="28.055" viewBox="0 0 16.99 28.055">
  <g id="Group_355" data-name="Group 355" transform="translate(0)">
    <path id="Path_130" data-name="Path 130" d="M-2859.5,3289.542c1.943,0,3.887.007,5.831,0a2.209,2.209,0,0,0,2.248-1.8,1.291,1.291,0,0,0,.031-.248c.021-1.431.063-2.863.055-4.293a10.04,10.04,0,0,0-.676-4.048,7.392,7.392,0,0,0-5.49-4.4,14.851,14.851,0,0,0-3.775-.145,6.691,6.691,0,0,0-4,1.5,7.54,7.54,0,0,0-3.041,6.141c-.005,1.641-.01,3.281,0,4.921a2.046,2.046,0,0,0,2.239,2.311c2.192.065,4.386.086,6.578.127Z" transform="translate(2868.325 -3261.551)" fill="#fff"/>
    <path id="Path_131" data-name="Path 131" d="M-2838.583,3153.712a5.467,5.467,0,0,0,5.474,5.449,5.469,5.469,0,0,0,5.437-5.487,5.446,5.446,0,0,0-5.474-5.441A5.447,5.447,0,0,0-2838.583,3153.712Z" transform="translate(2841.598 -3148.234)" fill="#fff"/>
  </g>
</svg>
