<svg id="Group_897" data-name="Group 897" xmlns="http://www.w3.org/2000/svg" width="32.206" height="29.249" viewBox="0 0 32.206 29.249">
  <path id="Path_203" data-name="Path 203" d="M2344.722,996.238h-6.539a.763.763,0,0,1-.666-.391l-1.93-3.465c-.082.137-.14.231-.195.328l-1.741,3.136a.762.762,0,0,1-.666.392h-6.548a.763.763,0,0,1-.758-.843l0-.036c.162-1.561.336-3.12.48-4.683.115-1.248.2-2.5.287-3.75a38.185,38.185,0,0,0,.195-4.891c-.006-.108-.012-.216-.018-.324a1.325,1.325,0,0,0-.149.46q-1.011,5.721-2.016,11.443c-.035.2-.114.26-.3.265q-2.074.058-4.148.125a.514.514,0,0,1-.523-.6c.138-.815.383-2.232.508-2.983q.836-4.985,1.67-9.971.769-4.6,1.536-9.193a.461.461,0,0,1,.326-.4c1.992-.8,3.98-1.614,5.969-2.423h0a.319.319,0,0,1,.414.174c1.887,4.6,3.763,9.177,5.672,13.833l5.67-13.83a.32.32,0,0,1,.416-.175l.03.012q2.559,1.04,5.118,2.082c.359.147.833.212,1.04.48a2.72,2.72,0,0,1,.251,1.152q.81,4.813,1.617,9.628c.472,2.813,1.609,9.541,1.954,11.614a.515.515,0,0,1-.524.6q-2.073-.065-4.147-.125c-.189-.005-.267-.063-.3-.265q-1.029-5.879-2.075-11.754a1.526,1.526,0,0,0-.055-.181,18.559,18.559,0,0,0-.051,2.536c.254,3.73.523,7.46.954,11.175A.761.761,0,0,1,2344.722,996.238Zm-1.552-19.167h-3.841v1.413h3.841Z" transform="translate(-2319.481 -966.989)"/>
  <path id="Path_204" data-name="Path 204" d="M2530.552,946.193v3.248a.494.494,0,0,1-.672.461c-.69-.267-1.741-.673-2.334-.891a.827.827,0,0,0-.529,0c-.765.283-1.525.581-2.3.885a.494.494,0,0,1-.674-.46v-3.213a.494.494,0,0,1,.671-.461c.685.263,1.722.664,2.3.877a.834.834,0,0,0,.533.005c.58-.214,1.637-.636,2.331-.913A.494.494,0,0,1,2530.552,946.193Z" transform="translate(-2511.223 -945.699)"/>
</svg>
