<svg xmlns="http://www.w3.org/2000/svg" width="16.305" height="15.058" viewBox="0 0 16.305 15.058">
  <path id="Path_111" data-name="Path 111" d="M-878.273,2517.184v-8.406c.04-.153.07-.308.121-.457a2.327,2.327,0,0,1,2.317-1.6q5.715,0,11.428,0a2.735,2.735,0,0,1,.647.068,2.306,2.306,0,0,1,1.79,2.3q0,2.785,0,5.571c0,.743,0,1.486,0,2.228a2.292,2.292,0,0,1-.982,1.92,2.4,2.4,0,0,1-1.468.434c-2.149,0-4.3,0-6.447,0a.5.5,0,0,0-.332.116q-1.464,1.136-2.935,2.265a.771.771,0,0,1-.277.147c-.342.078-.6-.159-.607-.546-.007-.6-.008-1.2-.012-1.8,0-.056-.005-.112-.009-.18-.293,0-.568,0-.844,0a2.289,2.289,0,0,1-2.18-1.378A4.672,4.672,0,0,1-878.273,2517.184Z" transform="translate(878.273 -2506.721)" fill="#ff9200"/>
</svg>
