<svg xmlns="http://www.w3.org/2000/svg" width="8.45" height="10.502" viewBox="0 0 8.45 10.502">
  <path id="Path_92" data-name="Path 92" d="M-431.222-31.9l-.6-.6a.765.765,0,0,1-.2-.341,3.007,3.007,0,0,1-3.646-2.935A3.01,3.01,0,0,1-433.68-38.6a2.513,2.513,0,0,0-3.083.282,2.613,2.613,0,0,0-.827,1.66c-.464,3.862-.444,3.688-.444,3.695a.764.764,0,0,1-.22.465l-.6.6a1.39,1.39,0,0,0-.41.989,1.4,1.4,0,0,0,1.4,1.4h1.616a1.316,1.316,0,0,0,1.28,1.012,1.316,1.316,0,0,0,1.28-1.012h1.474a1.4,1.4,0,0,0,1.4-1.4A1.39,1.39,0,0,0-431.222-31.9Z" transform="translate(439.262 39.001)" fill="#fff"/>
</svg>
