<svg xmlns="http://www.w3.org/2000/svg" width="12.495" height="8.925" viewBox="0 0 12.495 8.925">
  <g id="Group_29" data-name="Group 29" transform="translate(0 0)">
    <g id="Group_26" data-name="Group 26" transform="translate(0 0)">
      <g id="Group_25" data-name="Group 25">
        <path id="Path_21" data-name="Path 21" d="M-2026.079,1444.142h-9.818a1.339,1.339,0,0,0-1.338,1.339v6.248a1.339,1.339,0,0,0,1.338,1.339h9.818a1.339,1.339,0,0,0,1.339-1.339v-6.248A1.339,1.339,0,0,0-2026.079,1444.142Zm.447,5.17-2.809-2.808a.446.446,0,0,0-.631,0l-3.7,3.7-1.469-1.47a.446.446,0,0,0-.631,0l-1.47,1.47v-4.724a.447.447,0,0,1,.446-.446h9.818a.447.447,0,0,1,.447.446v3.832Z" transform="translate(2037.236 -1444.142)" fill="#c1c1c1"/>
      </g>
    </g>
    <g id="Group_28" data-name="Group 28" transform="translate(2.678 1.785)">
      <g id="Group_27" data-name="Group 27">
        <circle id="Ellipse_6" data-name="Ellipse 6" cx="1.339" cy="1.339" r="1.339" fill="#c1c1c1"/>
      </g>
    </g>
  </g>
</svg>
