<svg xmlns="http://www.w3.org/2000/svg" width="16.585" height="15.208" viewBox="0 0 16.585 15.208">
  <g id="Group_1041" data-name="Group 1041" transform="translate(-428.258 -150.902)">
    <path id="Path_355" data-name="Path 355" d="M526.64,152.1a1.725,1.725,0,0,0-1.685-1.2q-3.224,0-6.449,0h-3.792a1.735,1.735,0,0,0-1.82,1.824q0,3.711,0,7.421a1.731,1.731,0,0,0,1.441,1.789,2.173,2.173,0,0,0,.387.025q5.088,0,10.176,0a1.715,1.715,0,0,0,1.8-1.458.148.148,0,0,1,.024-.041v-8.07C526.7,152.3,526.671,152.2,526.64,152.1Zm-1.3,5.319a.94.94,0,0,1-.014.1l-1.613-1.882c-.165-.193-.329-.387-.5-.578a1.215,1.215,0,0,0-1.976.024q-1.173,1.4-2.343,2.812l-.167.2c-.263-.268-.519-.528-.774-.79a1.245,1.245,0,0,0-.616-.37,1.2,1.2,0,0,0-1.185.348q-.86.858-1.718,1.719a.422.422,0,0,1-.148.122c0-.045-.01-.089-.01-.134q0-3.143,0-6.286c0-.292.121-.413.414-.413h10.238c.272,0,.4.118.405.371Q525.341,155.04,525.339,157.422Z" transform="translate(-81.882 0)" fill="#fd9225"/>
    <path id="Path_356" data-name="Path 356" d="M432.681,309.422a2.624,2.624,0,0,1-1.324-.307,2.57,2.57,0,0,1-1.379-2.349c-.014-1.447,0-2.894,0-4.341v-.172l-.029-.005c-.016.048-.034.1-.049.144l-1.56,5.2a1.568,1.568,0,0,0,1.137,2.044l1.641.438q4.467,1.2,8.935,2.393a1.545,1.545,0,0,0,1.936-1.067q.283-.9.565-1.806c.017-.053.032-.107.053-.178h-.235Q437.525,309.42,432.681,309.422Z" transform="translate(0 -146.421)" fill="#fd9225"/>
    <path id="Path_357" data-name="Path 357" d="M578.093,214.674a1.381,1.381,0,1,0,1.381,1.38A1.39,1.39,0,0,0,578.093,214.674Z" transform="translate(-143.619 -61.697)" fill="#fd9225"/>
  </g>
</svg>
