<svg xmlns="http://www.w3.org/2000/svg" width="36.014" height="25.725" viewBox="0 0 36.014 25.725">
  <g id="Group_1043" data-name="Group 1043" transform="translate(0)">
    <g id="Group_26" data-name="Group 26" transform="translate(0 0)">
      <g id="Group_25" data-name="Group 25">
        <path id="Path_21" data-name="Path 21" d="M-2005.081,1444.142h-28.3a3.858,3.858,0,0,0-3.859,3.859v18.007a3.858,3.858,0,0,0,3.859,3.859h28.3a3.859,3.859,0,0,0,3.859-3.859V1448A3.859,3.859,0,0,0-2005.081,1444.142Zm1.286,14.9-8.094-8.094a1.286,1.286,0,0,0-1.818,0l-10.666,10.666-4.236-4.235a1.286,1.286,0,0,0-1.818,0l-4.236,4.235V1448a1.286,1.286,0,0,1,1.286-1.286h28.3a1.286,1.286,0,0,1,1.286,1.286v11.044Z" transform="translate(2037.236 -1444.142)" fill="#fff"/>
      </g>
    </g>
    <g id="Group_28" data-name="Group 28" transform="translate(7.717 5.145)">
      <g id="Group_27" data-name="Group 27">
        <ellipse id="Ellipse_6" data-name="Ellipse 6" cx="3.859" cy="3.859" rx="3.859" ry="3.859" fill="#fff"/>
      </g>
    </g>
  </g>
</svg>
