<svg id="Group_978" data-name="Group 978" xmlns="http://www.w3.org/2000/svg" width="20.806" height="17.546" viewBox="0 0 20.806 17.546">
  <path id="Path_272" data-name="Path 272" d="M1069.017,188.59a1.291,1.291,0,0,0-1.05-.445H1057.4c-.043,0-.087,0-.131,0l-.034,0v.654h10.48c.1,0,.2,0,.3,0a.578.578,0,0,1,.47.2.57.57,0,0,1,.081.5c-.011.051-.024.1-.037.152q-.011.043-.022.085l-.485,1.964q-.551,2.231-1.1,4.463a1.616,1.616,0,0,1-1.757,1.378h-3.659c-1.689,0-3.505,0-5.348.007a.42.42,0,0,1-.487-.389c-.578-2.762-1.17-5.57-1.744-8.286l-.641-3.038c-.088-.417-.151-.47-.565-.47h-4.277v.678h2.046c.713,0,1.256,0,1.761-.006h.013a.4.4,0,0,1,.468.371c.587,2.812,1.189,5.665,1.772,8.423l.613,2.9c.093.439.141.48.58.48h9.515a2.239,2.239,0,0,0,2.337-1.814c.533-2.133,1.046-4.216,1.651-6.687A1.288,1.288,0,0,0,1069.017,188.59Z" transform="translate(-1048.444 -185.367)" fill="#fff"/>
  <path id="Path_273" data-name="Path 273" d="M1161,384.127h-.007a1.735,1.735,0,0,0-.007,3.47H1161a1.748,1.748,0,0,0,1.734-1.742A1.738,1.738,0,0,0,1161,384.127Zm1.063,1.732a1.064,1.064,0,1,1-1.057-1.056h.012A1.057,1.057,0,0,1,1162.062,385.859Z" transform="translate(-1151.423 -370.051)" fill="#fff"/>
  <path id="Path_274" data-name="Path 274" d="M1250.163,384.13h-.017a1.735,1.735,0,0,0-.006,3.47h.024a1.735,1.735,0,0,0,0-3.47Zm1.062,1.728a1.05,1.05,0,0,1-.308.75,1.072,1.072,0,0,1-1.52,0,1.04,1.04,0,0,1-.3-.748,1.057,1.057,0,0,1,1.071-1.05h.01A1.062,1.062,0,0,1,1251.225,385.858Z" transform="translate(-1234.267 -370.054)" fill="#fff"/>
</svg>
