<svg xmlns="http://www.w3.org/2000/svg" width="16.895" height="16.874" viewBox="0 0 16.895 16.874">
  <path id="Path_271" data-name="Path 271" d="M799.551,192.3c0-.382,0-.746,0-1.11,0-.246.13-.4.335-.4s.34.152.34.4q0,.951,0,1.9a.344.344,0,0,1-.393.393q-.963,0-1.926,0a.339.339,0,1,1,0-.672c.371,0,.742,0,1.158,0-.071-.067-.115-.111-.162-.151a7.845,7.845,0,0,0-10.263.1,7.421,7.421,0,0,0-2.54,4.816,7.768,7.768,0,1,0,15.479,1.023c0-.256.137-.412.347-.406s.337.16.328.406a8.456,8.456,0,0,1-13.146,6.906,8.023,8.023,0,0,1-3.651-5.729,8.476,8.476,0,0,1,13.964-7.566c.026.022.051.044.078.065A.367.367,0,0,0,799.551,192.3Z" transform="translate(-785.358 -190.114)" fill="#fff"/>
</svg>
