<svg xmlns="http://www.w3.org/2000/svg" width="17.08" height="17.082" viewBox="0 0 17.08 17.082">
  <path id="Path_277" data-name="Path 277" d="M-9.74,201.966l-1.209-1.209c-.033-.033-.065-.067-.1-.1l-.062-.066.013-.015a7.05,7.05,0,0,0,1.816-5.267,6.9,6.9,0,0,0-2.529-4.962,7.141,7.141,0,0,0-4.6-1.7,7.122,7.122,0,0,0-4.61,1.71,7.159,7.159,0,0,0-2.484,4.536,7.123,7.123,0,0,0,1.188,4.919,6.886,6.886,0,0,0,4.367,2.964,7.675,7.675,0,0,0,1.6.176,7.24,7.24,0,0,0,4.745-1.859l.018-.015.013.019c.015.021.029.043.043.063a.709.709,0,0,0,.085.112c1.7,1.705,3.084,3.087,4.353,4.353a.355.355,0,0,0,.5,0h0a.356.356,0,0,0,0-.5Zm-2.1-1.638a6.412,6.412,0,0,1-4.564,1.913,6.463,6.463,0,0,1-4.543-1.874,6.379,6.379,0,0,1-1.892-4.557,6.392,6.392,0,0,1,1.862-4.545,6.4,6.4,0,0,1,4.564-1.89h.011a6.378,6.378,0,0,1,4.541,1.874A6.438,6.438,0,0,1-9.972,195.8,6.344,6.344,0,0,1-11.837,200.328Z" transform="translate(23.56 -188.649)" fill="#fff"/>
</svg>
