<svg id="Group_977" data-name="Group 977" xmlns="http://www.w3.org/2000/svg" width="17.994" height="17.998" viewBox="0 0 17.994 17.998">
  <path id="Path_269" data-name="Path 269" d="M524.24,200.177q-.431,0-.861,0a1.037,1.037,0,0,1-1.035-.871c-.072-.428-.121-.869-.169-1.295l0-.017a.306.306,0,0,0-.225-.286c-.247-.09-.5-.193-.745-.307a.35.35,0,0,0-.148-.038.281.281,0,0,0-.18.072c-.309.248-.638.5-.976.761a1.146,1.146,0,0,1-.7.258,1.121,1.121,0,0,1-.788-.362q-.552-.55-1.1-1.1a1.048,1.048,0,0,1-.1-1.483c.277-.361.51-.663.75-.963A.288.288,0,0,0,518,194.2c-.1-.214-.2-.449-.315-.761a.271.271,0,0,0-.245-.2c-.19-.022-.38-.046-.569-.07-.214-.027-.428-.054-.643-.078a1.085,1.085,0,0,1-.972-.806c-.007-.024-.016-.048-.026-.072l-.007-.018v-2.055a.2.2,0,0,0,.031-.059,1.054,1.054,0,0,1,.952-.805c.33-.044.766-.1,1.209-.148a.3.3,0,0,0,.273-.216c.1-.281.2-.524.307-.745a.286.286,0,0,0-.034-.344c-.249-.309-.5-.63-.733-.94l-.016-.021a1.048,1.048,0,0,1,.09-1.483c.34-.343.7-.707,1.114-1.114a1.113,1.113,0,0,1,.781-.358,1.15,1.15,0,0,1,.7.262c.3.23.62.479.976.76a.253.253,0,0,0,.3.045c.133-.06.271-.117.4-.172s.273-.112.408-.174a.32.32,0,0,0,.173-.211c.031-.195.055-.393.078-.585.014-.115.028-.231.043-.346.006-.045.011-.09.017-.135a1.459,1.459,0,0,1,.208-.709,1.193,1.193,0,0,1,.7-.46h2.035a1.218,1.218,0,0,1,.684.433,1.48,1.48,0,0,1,.229.747c0,.036.009.072.014.108.015.111.028.222.041.334.023.2.047.4.08.6a.341.341,0,0,0,.178.223c.259.119.534.235.82.342a.27.27,0,0,0,.094.016.3.3,0,0,0,.174-.05c.226-.168.452-.345.67-.515l.326-.254a1.146,1.146,0,0,1,.7-.258,1.1,1.1,0,0,1,.775.348c.344.34.713.709,1.127,1.127a1.052,1.052,0,0,1,.09,1.471c-.29.38-.529.686-.75.962a.285.285,0,0,0-.044.343c.123.258.229.53.316.761a.274.274,0,0,0,.244.2c.228.026.456.054.684.083l.528.065a1.071,1.071,0,0,1,1.005,1.117c0,.57,0,1.092,0,1.594a1.048,1.048,0,0,1-.914,1.089c-.393.065-.8.11-1.187.153l-.091.01a.293.293,0,0,0-.274.215c-.091.247-.194.5-.315.762a.267.267,0,0,0,.032.312c.232.29.477.6.771.99a1.044,1.044,0,0,1-.091,1.458c-.4.41-.777.783-1.139,1.139a1.091,1.091,0,0,1-.767.343,1.139,1.139,0,0,1-.69-.255c-.315-.242-.65-.5-.976-.761a.29.29,0,0,0-.186-.076.331.331,0,0,0-.141.036c-.245.114-.5.22-.761.315a.293.293,0,0,0-.214.275l-.023.2c-.043.371-.087.755-.151,1.129a1.031,1.031,0,0,1-1.026.86Q524.659,200.177,524.24,200.177Zm-3.2-3.524c.052.018.1.034.144.053l.394.166c.282.12.573.244.865.353a.4.4,0,0,1,.29.364c.058.508.125,1.032.185,1.494a.485.485,0,0,0,.556.484h1.488a.492.492,0,0,0,.569-.51q.035-.288.072-.575.057-.459.113-.918a.373.373,0,0,1,.279-.335c.454-.172.861-.341,1.244-.516a.514.514,0,0,1,.212-.054.393.393,0,0,1,.25.1c.386.308.763.6,1.216.948a.54.54,0,0,0,.325.133.5.5,0,0,0,.351-.176c.324-.322.675-.672,1.1-1.1a.456.456,0,0,0,.044-.7c-.3-.385-.615-.8-.946-1.217a.371.371,0,0,1-.043-.433c.2-.45.369-.832.512-1.227a.42.42,0,0,1,.4-.318c.5-.053.991-.118,1.495-.186a.469.469,0,0,0,.457-.526c0-.473,0-.978,0-1.542a.473.473,0,0,0-.466-.535c-.548-.073-1.042-.135-1.512-.189a.393.393,0,0,1-.363-.291c-.171-.463-.335-.86-.5-1.213a.419.419,0,0,1,.051-.507c.273-.337.541-.687.8-1.025l.126-.164a.451.451,0,0,0-.044-.689q-.537-.541-1.077-1.078a.548.548,0,0,0-.381-.206.605.605,0,0,0-.362.16l-.22.17c-.318.246-.647.5-.968.755a.38.38,0,0,1-.242.1.5.5,0,0,1-.206-.052c-.477-.218-.867-.38-1.228-.511a.409.409,0,0,1-.308-.386c-.056-.51-.123-1.018-.186-1.495a.473.473,0,0,0-.535-.466h-1.524a.476.476,0,0,0-.546.474c-.063.478-.129.987-.186,1.495a.4.4,0,0,1-.3.376c-.447.164-.844.328-1.213.5a.543.543,0,0,1-.228.06.413.413,0,0,1-.263-.107c-.344-.276-.7-.55-1.044-.814l-.145-.111a.571.571,0,0,0-.341-.146.513.513,0,0,0-.36.187q-.54.538-1.077,1.078a.465.465,0,0,0-.048.729l.186.241c.237.307.482.625.73.933a.409.409,0,0,1,.05.492c-.193.411-.36.813-.5,1.2a.419.419,0,0,1-.4.319c-.449.048-.9.108-1.344.166l-.133.018a.477.477,0,0,0-.476.545q0,.753,0,1.506a.488.488,0,0,0,.5.56l.325.041c.389.049.778.1,1.168.144a.383.383,0,0,1,.347.288c.183.494.338.868.5,1.213a.419.419,0,0,1-.049.507c-.268.332-.533.676-.788,1.009l-.138.18a.45.45,0,0,0,.043.688q.538.54,1.077,1.078a.55.55,0,0,0,.383.207.6.6,0,0,0,.36-.159l.458-.356c.239-.186.487-.379.732-.566a.942.942,0,0,1,.172-.1l.059-.028Z" transform="translate(-515.228 -182.179)" fill="#fff"/>
  <path id="Path_270" data-name="Path 270" d="M593.654,264.273q-.078,0-.158,0a3.721,3.721,0,0,1-3.6-3.82,3.781,3.781,0,0,1,1.135-2.551,3.6,3.6,0,0,1,2.526-1.044c.05,0,.1,0,.15,0a3.776,3.776,0,0,1,2.646,1.226,3.579,3.579,0,0,1,.954,2.594,3.8,3.8,0,0,1-1.136,2.553A3.581,3.581,0,0,1,593.654,264.273Zm-.055-6.8a3.094,3.094,0,0,0,0,6.187h.008a3.094,3.094,0,0,0,0-6.187Z" transform="translate(-584.605 -251.566)" fill="#fff"/>
</svg>
