<svg xmlns="http://www.w3.org/2000/svg" width="10.798" height="10.796" viewBox="0 0 10.798 10.796">
  <path id="Path_106" data-name="Path 106" d="M102.779,1591.052v-1.392a.405.405,0,0,1,.323-.265c.355-.082.708-.175,1.063-.26a.152.152,0,0,0,.125-.107c.055-.151.116-.3.183-.448a.144.144,0,0,0-.009-.154c-.181-.3-.359-.6-.537-.894a.345.345,0,0,1,.061-.5l.79-.79a.343.343,0,0,1,.506-.061c.283.169.567.337.848.511a.161.161,0,0,0,.174.007c.178-.082.359-.158.542-.23a.157.157,0,0,0,.11-.123c.086-.365.178-.729.269-1.094a.334.334,0,0,1,.373-.3h1.16a.332.332,0,0,1,.37.287c.091.364.183.728.269,1.094a.163.163,0,0,0,.113.132c.17.065.338.136.5.211a.154.154,0,0,0,.164-.009c.275-.169.553-.334.831-.5a.333.333,0,0,1,.48.06l.805.805a.337.337,0,0,1,.059.489c-.164.274-.326.549-.495.821a.162.162,0,0,0-.007.174q.113.249.212.5a.155.155,0,0,0,.124.108c.369.088.736.179,1.1.271a.33.33,0,0,1,.284.361q0,.585,0,1.17a.332.332,0,0,1-.289.368c-.368.092-.735.183-1.1.271a.147.147,0,0,0-.117.1q-.1.255-.211.5a.144.144,0,0,0,.007.154c.167.272.331.547.494.821a.333.333,0,0,1-.058.481q-.4.4-.8.806a.342.342,0,0,1-.491.06c-.271-.162-.541-.327-.814-.485a.171.171,0,0,0-.131-.009q-.284.111-.561.239a.188.188,0,0,0-.093.107c-.093.356-.182.714-.265,1.073a.405.405,0,0,1-.265.323h-1.392a.405.405,0,0,1-.265-.322c-.082-.355-.175-.708-.258-1.062a.163.163,0,0,0-.116-.13c-.173-.067-.344-.138-.513-.216a.152.152,0,0,0-.163.01c-.26.16-.522.316-.784.472a.341.341,0,0,1-.49-.061l-.8-.8a.343.343,0,0,1-.062-.5c.158-.265.319-.528.474-.8a.172.172,0,0,0,.007-.131c-.071-.183-.152-.361-.224-.544a.148.148,0,0,0-.116-.1c-.358-.085-.714-.178-1.073-.261A.4.4,0,0,1,102.779,1591.052Zm7.613-.7a2.214,2.214,0,1,0-2.215,2.213A2.221,2.221,0,0,0,110.392,1590.357Z" transform="translate(-102.779 -1584.958)" fill="#575757"/>
</svg>
