<svg xmlns="http://www.w3.org/2000/svg" width="16.612" height="16.938" viewBox="0 0 16.612 16.938">
  <g id="Group_933" data-name="Group 933" transform="translate(-1081.472 -264.642)">
    <path id="Path_342" data-name="Path 342" d="M1253.949,267.837a3.34,3.34,0,0,1-2-1.937c-.146-.362-.272-.733-.414-1.1a.7.7,0,0,0-.127-.161c-.052.054-.125.1-.151.164-.124.313-.236.63-.352.946a3,3,0,0,1-1.25,1.643,17.422,17.422,0,0,1-1.707.774c-.1.044-.19.1-.348.187.153.074.229.118.31.149.3.113.6.22.9.331a3.4,3.4,0,0,1,2.1,2.114c.114.316.229.633.352.946.023.059.088.1.133.152.046-.049.112-.09.135-.148.117-.3.226-.6.333-.9a3.434,3.434,0,0,1,2.2-2.2c.359-.127.707-.283,1.06-.426v-.109C1254.731,268.128,1254.339,267.986,1253.949,267.837Z" transform="translate(-157.038 0)" fill="#fff"/>
    <path id="Path_343" data-name="Path 343" d="M1244.617,479.344a6.055,6.055,0,0,1-.907,1.69,6.347,6.347,0,0,1-1.681.908,5.541,5.541,0,0,0,.76.331,2.415,2.415,0,0,1,1.484,1.469l.3.789h.055c.108-.259.226-.515.323-.778a2.323,2.323,0,0,1,1.037-1.261,9.257,9.257,0,0,1,.978-.416c.083-.035.161-.082.305-.156a5.178,5.178,0,0,1-1.754-.891A6.052,6.052,0,0,1,1244.617,479.344Z" transform="translate(-151.769 -202.951)" fill="#fff"/>
    <path id="Path_344" data-name="Path 344" d="M1092.146,330.416a1.823,1.823,0,0,0,.31-.181,2.117,2.117,0,0,0-.284-.2c-.463-.212-.93-.417-1.4-.625a4.827,4.827,0,0,1-2.627-2.613c-.265-.646-.425-1.334-.646-2a1.9,1.9,0,0,0-.224-.37,1.941,1.941,0,0,0-.25.327c-.2.419-.383.845-.572,1.27a4.811,4.811,0,0,1-2.61,2.629c-.688.281-1.42.456-2.129.688a.994.994,0,0,0-.247.18c.073.072.133.171.22.212.478.225.963.433,1.444.651a4.885,4.885,0,0,1,2.739,3.026c.177.536.321,1.082.493,1.619a1.4,1.4,0,0,0,.192.3,1.421,1.421,0,0,0,.246-.286c.219-.46.418-.93.63-1.393a4.875,4.875,0,0,1,2.96-2.7C1090.974,330.753,1091.564,330.6,1092.146,330.416Z" transform="translate(0 -56.51)" fill="#fff"/>
  </g>
</svg>
