<svg id="Capa_1" enable-background="new 0 0 524.235 524.235" height="512" viewBox="0 0 524.235 524.235" width="512" xmlns="http://www.w3.org/2000/svg"><path d="m515.628 100.294c-5.295-2.864-11.775-2.576-16.798.704-.468.316-48.775 30.831-138.556 29.981l.138 131.139c0 23.454-4.342 45.859-11.909 66.731 3.874-.714 7.829-1.202 11.909-1.202 36.19 0 65.529 29.337 65.529 65.529h-116.002c-18.37 20.46-40.87 37.08-66.297 48.431 30.275 31.391 71.883 49.863 116.77 49.863 90.327 0 163.823-73.496 163.823-163.824v-212.97c0-6.015-3.327-11.519-8.607-14.382zm-122.451 161.824c0-18.096 14.669-32.765 32.765-32.765s32.765 14.669 32.765 32.765z"/><path d="m327.647 262.136v-212.971c0-6.015-3.328-11.519-8.607-14.383-5.311-2.848-11.759-2.576-16.798.704-.464.304-47.147 30.061-138.418 30.061-90.759 0-137.426-29.421-138.402-30.045-5.071-3.344-11.487-3.648-16.766-.784-5.328 2.848-8.656 8.4-8.656 14.447v212.971c0 90.327 73.496 163.824 163.824 163.824s163.823-73.497 163.823-163.824zm-229.353-98.295c18.096 0 32.765 14.669 32.765 32.765h-65.53c0-18.096 14.669-32.765 32.765-32.765zm65.53 163.824c-36.19 0-65.529-29.339-65.529-65.529h131.059c-.001 36.19-29.34 65.529-65.53 65.529zm32.764-131.059c0-18.096 14.669-32.765 32.765-32.765s32.765 14.669 32.765 32.765z"/></svg>