<svg xmlns="http://www.w3.org/2000/svg" width="18.195" height="13.039" viewBox="0 0 18.195 13.039">
  <g id="Group_1028" data-name="Group 1028" transform="translate(0 0)">
    <path id="Path_293" data-name="Path 293" d="M-731.738,2910.7c-.444-1.034-.908-2.059-1.356-3.091a.727.727,0,0,0-.742-.483c-1.05.008-2.1,0-3.151,0h-.222c.067-.591.128-1.151.194-1.71.072-.615-.174-.9-.787-.9h-8.662a1.826,1.826,0,0,0-.183,0,.631.631,0,0,0-.566.429.648.648,0,0,0,.644.872c1.071,0,2.142,0,3.213,0a.648.648,0,0,1,.656.64.654.654,0,0,1-.656.662c-.1,0-.2,0-.3,0q-2.115,0-4.229,0a.65.65,0,0,0-.661.57.653.653,0,0,0,.5.714,1.282,1.282,0,0,0,.283.018h6.3a.658.658,0,0,1,.715.644.66.66,0,0,1-.719.66c-.23,0-.461,0-.691,0q-1.871,0-3.741,0a.65.65,0,0,0-.642.38.648.648,0,0,0,.608.923c.847.006,1.694,0,2.542,0a.644.644,0,0,1,.643.409.652.652,0,0,1-.653.895q-2.552,0-5.1,0a.652.652,0,0,0-.7.657.656.656,0,0,0,.692.646c.413,0,.827,0,1.24,0a.652.652,0,0,1,.669.648.653.653,0,0,1-.663.654c-.223,0-.448-.007-.671,0a.645.645,0,0,0-.558.913.657.657,0,0,0,.657.389c.6,0,1.191,0,1.78,0a1.747,1.747,0,0,0,1.165,1.228,1.955,1.955,0,0,0,2.263-1.079.226.226,0,0,1,.242-.153c1.064.005,2.128,0,3.192,0h1.6l.055.149a1.661,1.661,0,0,0,1.949,1.11,1.956,1.956,0,0,0,1.421-1.11.223.223,0,0,1,.242-.153c.311.009.623,0,.935,0,.606,0,.81-.2.872-.8.149-1.424.313-2.847.459-4.271A1.03,1.03,0,0,0-731.738,2910.7Zm-12.622,5.552c-.254.038-.459-.182-.458-.493a.805.805,0,0,1,.534-.763.4.4,0,0,1,.571.325A.812.812,0,0,1-744.36,2916.25Zm8.452,0c-.253.034-.455-.189-.451-.5a.8.8,0,0,1,.54-.758.4.4,0,0,1,.559.294A.815.815,0,0,1-735.908,2916.251Zm2.93-4.559h-2.814a.656.656,0,0,1-.734-.809c.065-.62.131-1.24.206-1.859a.63.63,0,0,1,.643-.585c.467-.011.934-.007,1.4,0a.22.22,0,0,1,.161.107c.383.837.772,1.672,1.126,2.521A1.778,1.778,0,0,1-732.978,2911.691Z" transform="translate(749.857 -2904.517)" fill="#ff9200"/>
    <path id="Path_294" data-name="Path 294" d="M-767.889,3063.266c.115,0,.231,0,.346,0a.653.653,0,0,0,.639-.657.651.651,0,0,0-.631-.644c-.23-.008-.461-.008-.691,0a.647.647,0,0,0-.629.646.654.654,0,0,0,.62.655C-768.119,3063.271-768,3063.266-767.889,3063.266Z" transform="translate(768.854 -3056.745)" fill="#ff9200"/>
  </g>
</svg>
