<svg xmlns="http://www.w3.org/2000/svg" width="11.651" height="17.942" viewBox="0 0 11.651 17.942">
  <g id="Group_339" data-name="Group 339" transform="translate(0 0)">
    <path id="Path_112" data-name="Path 112" d="M-230.783,2500.417a7.283,7.283,0,0,1,1.117.437,3.327,3.327,0,0,1,1.721,3.016c.014,1.772.008,3.545,0,5.317a10.819,10.819,0,0,1-.071,1.486,3.413,3.413,0,0,1-2.884,2.768,3.4,3.4,0,0,1-3.722-2.3,3.607,3.607,0,0,1-.188-1.133c-.017-2.053-.013-4.106-.007-6.16a3.434,3.434,0,0,1,2.76-3.4.466.466,0,0,0,.08-.032Z" transform="translate(237.204 -2500.417)" fill="#ff9200"/>
    <path id="Path_113" data-name="Path 113" d="M-234.209,2530.122h.454c.492,0,.983,0,1.475,0a.543.543,0,0,1,.544.771.522.522,0,0,1-.509.307q-1.641,0-3.282,0h-1.685a.53.53,0,0,1-.592-.526.536.536,0,0,1,.575-.55c.579-.007,1.158,0,1.737,0h.208c0-.464,0-.907-.007-1.35,0-.035-.089-.092-.142-.1a5.78,5.78,0,0,1-2.6-.982,5.7,5.7,0,0,1-2.395-3.523,8.4,8.4,0,0,1-.146-1.267.507.507,0,0,1,.475-.549.516.516,0,0,1,.583.457c.042.294.046.594.092.888a4.5,4.5,0,0,0,1.042,2.243,4.6,4.6,0,0,0,2.622,1.58,4.618,4.618,0,0,0,3.721-.745,4.609,4.609,0,0,0,1.932-2.925,7.242,7.242,0,0,0,.1-.921.553.553,0,0,1,.533-.58.524.524,0,0,1,.549.535,5.669,5.669,0,0,1-.681,2.725,5.76,5.76,0,0,1-3.436,2.84c-.337.106-.7.146-1.042.224-.049.011-.124.064-.125.1C-234.212,2529.216-234.209,2529.659-234.209,2530.122Z" transform="translate(240.57 -2513.26)" fill="#ff9200"/>
  </g>
</svg>
