<svg id="Group_899" data-name="Group 899" xmlns="http://www.w3.org/2000/svg" width="29.047" height="30.816" viewBox="0 0 29.047 30.816">
  <path id="Path_198" data-name="Path 198" d="M491.2,1174.1c-.506-.037-1.012-.078-1.519-.11a50.132,50.132,0,0,1-11.092-1.957l-.027-.008a.243.243,0,0,1-.136-.362l.02-.032q5.01-7.813,10.018-15.627a.48.48,0,0,1,.462-.255q3.986.012,7.973,0a.48.48,0,0,1,.462.256q5,7.817,10.017,15.627l.021.033a.242.242,0,0,1-.133.361h0a49.217,49.217,0,0,1-9.539,1.834c-.9.081-1.807.125-2.71.188-.131.009-.261.033-.391.05Z" transform="translate(-478.385 -1143.281)"/>
  <path id="Path_199" data-name="Path 199" d="M618.631,963.742c.286-.39.547-.778.84-1.14a6.421,6.421,0,0,1,2.29-1.784.341.341,0,0,0,.229-.367c-.009-1.107,0-2.215,0-3.323V957.1a.317.317,0,0,1,.317-.317h1.187a.317.317,0,0,1,.317.317v3.073l.914-.052c.007.118.017.206.017.295,0,1.241.006,2.483,0,3.724a3.7,3.7,0,0,1-3.676,3.675q-2.443.014-4.887,0a3.645,3.645,0,0,1-3.668-3.659c-.007-1.25,0-2.5,0-3.749,0-.08.007-.16.012-.283l.894.049v-3.066a.317.317,0,0,1,.317-.317h1.212a.317.317,0,0,1,.317.317h0c0,1.118,0,2.235.007,3.353a.4.4,0,0,0,.15.309,7.117,7.117,0,0,1,3.028,2.751c.038.06.079.118.122.175A.322.322,0,0,0,618.631,963.742Z" transform="translate(-604.1 -956.784)"/>
</svg>
