<svg version="1.1" id="Uploaded to svgrepo.com" xmlns="http://www.w3.org/2000/svg" xmlns:xlink="http://www.w3.org/1999/xlink" x="0px" y="0px"
	 width="32px" height="32px" viewBox="0 0 32 32" style="enable-background:new 0 0 32 32;" xml:space="preserve">
<style type="text/css">
	.puchipuchi_een{fill:#111918;}
</style>
<path class="puchipuchi_een" d="M12.65,18.35l8.841-8.841c0.086-0.086,0.225-0.086,0.311,0l4.689,4.689
	c0.086,0.086,0.086,0.225,0,0.311L17.65,23.35C17.234,23.766,16.669,24,16.08,24h-2.86C12.546,24,12,23.454,12,22.78v-2.86
	C12,19.331,12.234,18.766,12.65,18.35z M29.586,8.586l-2.172-2.172c-0.781-0.781-2.047-0.781-2.828,0l-2.232,2.232l5,5l2.232-2.232
	C30.367,10.633,30.367,9.367,29.586,8.586z M23,20c0,0.553-0.447,1-1,1h-0.586l-2,2H22c0.553,0,1,0.447,1,1s-0.447,1-1,1h-5.828H13
	H7c-0.553,0-1-0.447-1-1s0.447-1,1-1h4v-2H7c-0.553,0-1-0.447-1-1s0.447-1,1-1h4.13c0.138-0.482,0.384-0.928,0.749-1.293L12.586,17
	H7c-0.553,0-1-0.447-1-1s0.447-1,1-1h7.586l2-2H7c-0.553,0-1-0.447-1-1s0.447-1,1-1h11.586l2-2H7C6.447,9,6,8.553,6,8s0.447-1,1-1
	h15.578l1.301-1.293C24.445,5.14,25.199,4.828,26,4.828c0.347,0,0.682,0.069,1,0.182V3c0-1.105-0.895-2-2-2H3C1.895,1,1,1.895,1,3
	v26c0,1.105,0.895,2,2,2h22c1.105,0,2-0.895,2-2V15.414l-4.126,4.126C22.948,19.68,23,19.831,23,20z"/>
</svg>