<?xml version="1.0" encoding="iso-8859-1"?>
<!-- Generator: Adobe Illustrator 19.0.0, SVG Export Plug-In . SVG Version: 6.00 Build 0)  -->
<svg version="1.1" id="Layer_1" xmlns="http://www.w3.org/2000/svg" xmlns:xlink="http://www.w3.org/1999/xlink" x="0px" y="0px"
	 viewBox="0 0 503.996 503.996" style="enable-background:new 0 0 503.996 503.996;" xml:space="preserve">
<g>
	<g>
		<path d="M346.008,164.406c-0.644-1.368-2.02-2.264-3.532-2.264h-33.824V72.83c0-2.16,0.396-4.46-1.764-4.46h-101.48
			c-2.156,0-6.148,2.3-6.148,4.46v89.308h-28.948c-1.508,0-2.88,0.9-3.528,2.264c-0.648,1.36-0.452,2.992,0.5,4.16l86.084,105.496
			c0.74,0.912,1.852,1.44,3.028,1.44c1.172,0,2.28-0.528,3.028-1.432l86.084-105.504
			C346.46,167.398,346.652,165.762,346.008,164.406z"/>
	</g>
</g>
<g>
	<g>
		<path d="M497.508,305.518c0,0,0.5-0.004,0.496-0.008l-65.024-63.72c-8.92-8.516-19.04-13.236-28.944-13.236h-85.62
			c-4.316,0-7.812,3.5-7.812,7.812c0,4.316,3.496,7.816,7.812,7.816h85.616c7.92,0,14.932,5.432,18.348,8.692l47.276,46.004h-147.32
			c-4.3,0-7.788,3.64-7.812,7.944c-0.132,32.164-26.412,58.416-58.572,58.416c-32.16,0-58.44-26.292-58.576-58.46
			c-0.02-4.296-3.516-7.904-7.812-7.904H38.468l47.228-45.948c3.468-3.312,10.484-8.748,18.408-8.748h85.748
			c4.308,0,7.812-3.5,7.812-7.816c0-4.312-3.504-7.812-7.812-7.812H104.1c-9.908,0-20.276,4.72-29.256,13.292L9.78,304.374
			c-5.348,4.3-9.78,10.9-9.78,18.276v89.86c0,12.924,12.524,23.116,25.448,23.116H482.56c12.924,0,21.436-10.192,21.436-23.116
			v-89.86C504,315.886,502.108,309.798,497.508,305.518z"/>
	</g>
</g>
<g>
</g>
<g>
</g>
<g>
</g>
<g>
</g>
<g>
</g>
<g>
</g>
<g>
</g>
<g>
</g>
<g>
</g>
<g>
</g>
<g>
</g>
<g>
</g>
<g>
</g>
<g>
</g>
<g>
</g>
</svg>
