<?xml version="1.0" encoding="utf-8"?>

<svg version="1.1" id="Icons" xmlns="http://www.w3.org/2000/svg" xmlns:xlink="http://www.w3.org/1999/xlink" x="0px" y="0px"
	 viewBox="0 0 32 32" style="enable-background:new 0 0 32 32;" xml:space="preserve">
<g>
	<path d="M28,5h-6V3c0-0.6-0.4-1-1-1s-1,0.4-1,1v2h-8V3c0-0.6-0.4-1-1-1s-1,0.4-1,1v2H4C3.4,5,3,5.4,3,6v4h26V6C29,5.4,28.6,5,28,5z
		"/>
	<path d="M3,28c0,0.6,0.4,1,1,1h18v-6c0-0.5,0.4-0.9,0.9-1c1.4-0.1,3.5-1.6,4.3-2.6C28.9,17.2,29,16,29,16v-4H3V28z"/>
	<path d="M24,23.8V29c0.2,0,0.3-0.1,0.5-0.2l0.9-0.9c2-2,3.2-4.6,3.5-7.4c0,0.1-0.1,0.1-0.1,0.2C27.8,21.9,25.8,23.3,24,23.8z"/>
</g>
</svg>
