<?xml version="1.0" encoding="utf-8"?>
<!-- Uploaded to SVGRepo https://www.svgrepo.com -->
<svg version="1.1" id="compass" xmlns="http://www.w3.org/2000/svg" xmlns:xlink="http://www.w3.org/1999/xlink" x="0px" y="0px"
	 width="256px" height="256px" viewBox="0 0 256 256" enable-background="new 0 0 256 256" xml:space="preserve">
<path d="M142.941,47.735c4.781-4.166,7.822-10.281,7.822-17.106c0-12.52-10.185-22.705-22.705-22.705S105.353,18.11,105.353,30.63
	c0,6.825,3.04,12.94,7.822,17.106c-48.512,7.194-85.732,49.008-85.732,99.523c0,55.572,45.042,100.626,100.614,100.626
	s100.626-45.054,100.626-100.626C228.682,96.744,191.454,54.931,142.941,47.735z M128.058,22.556c4.452,0,8.073,3.622,8.073,8.073
	s-3.622,8.073-8.073,8.073c-4.452,0-8.073-3.622-8.073-8.073S123.606,22.556,128.058,22.556z M128.056,220.068
	c-40.482,0-73.419-32.937-73.419-73.419c0-40.482,32.937-73.419,73.419-73.419c40.482,0,73.419,32.937,73.419,73.419
	C201.475,187.131,168.538,220.068,128.056,220.068z M81.5,193.211l31.537-61.579l61.579-31.538l-31.538,61.579L81.5,193.211z
	 M120.272,138.866l15.573,15.573l16.349-31.922L120.272,138.866z M128.058,100.737c-3.296,0-6.019-2.639-6.019-5.935v-9.55
	c0-3.296,2.722-6.003,6.019-6.003c3.296,0,5.919,2.706,5.919,6.003v9.55C133.978,98.098,131.354,100.737,128.058,100.737z"/>
</svg>
