<?xml version="1.0" encoding="iso-8859-1"?>
<!-- Generator: Adobe Illustrator 19.0.0, SVG Export Plug-In . SVG Version: 6.00 Build 0)  -->
<svg version="1.1" id="Layer_1" xmlns="http://www.w3.org/2000/svg" xmlns:xlink="http://www.w3.org/1999/xlink" x="0px" y="0px"
	 viewBox="0 0 511.722 511.722" style="enable-background:new 0 0 511.722 511.722;" xml:space="preserve">
<g>
	<g>
		<g>
			<path d="M108.883,127.722h293.952l25.344-60.16c3.499-5.888,5.141-12.8,4.587-20.779c-1.621-18.667-12.885-34.453-30.187-42.197
				c-17.216-7.744-37.269-5.547-52.224,5.675c-8.683,6.507-22.187,14.272-37.056,14.272c-9.557,0-17.963-2.283-24.939-6.784
				c-19.755-12.693-45.205-12.693-65.003,0c-6.976,4.501-15.36,6.784-24.917,6.784c-14.869,0-28.373-7.765-37.056-14.272
				c-14.997-11.243-35.008-13.419-52.203-5.675c-17.323,7.723-28.608,23.509-30.336,43.712c-0.448,6.635,1.216,13.355,4.693,19.243
				L108.883,127.722z"/>
			<path d="M255.087,374.875c-1.003-2.176-2.325-4.16-3.968-5.867c-0.299-0.32-0.661-0.576-0.981-0.875
				c-3.797-3.477-8.789-5.739-14.336-5.739c-11.776,0-21.333,9.557-21.333,21.333c0,11.755,9.557,21.333,21.333,21.333
				c8.64,0,16.021-5.227,19.371-12.629l0.469-1.344c0.853-2.304,1.493-4.757,1.493-7.36c0-2.645-0.64-5.099-1.515-7.424
				C255.449,375.814,255.3,375.344,255.087,374.875z"/>
			<path d="M417.216,170.389H293.674c7.424,19.968,8.085,37.696,8.149,40.683c-0.192,16.981,10.453,21.312,10.56,21.355
				c11.072,4.032,16.789,16.277,12.736,27.328c-3.136,8.683-11.328,14.059-20.032,14.059c-2.411,0-4.885-0.405-7.296-1.28
				c-14.528-5.312-39.061-24.171-38.635-61.312c-0.021,0-0.405-8.427-3.264-18.859c-2.347,8.384-3.243,15.872-3.307,19.477
				c0,40.299-33.856,82.389-37.696,87.04c-4.224,5.099-10.304,7.723-16.448,7.723c-4.779,0-9.579-1.579-13.568-4.864
				c-9.088-7.488-10.368-20.928-2.88-30.016c7.232-8.832,27.925-38.827,27.925-60.267c0.064-3.221,0.725-21.056,8.149-41.067H94.506
				c-28.416,39.552-65.088,110.4-65.088,213.333v16.277c0,37.376,21.931,70.933,55.829,85.504
				c40.469,17.387,97.856,26.219,170.603,26.219c72.789,0,130.176-8.832,170.624-26.219c33.899-14.592,55.829-48.149,55.829-85.504
				v-16.277C482.304,280.789,445.632,209.941,417.216,170.389z M299.797,426.389c-5.12,0-10.133-0.768-15.04-1.963
				c-11.733,14.123-29.205,23.296-48.96,23.296c-35.285,0-64-28.715-64-64c0-35.285,28.715-64,64-64
				c5.184,0,10.176,0.789,14.997,1.963c11.925-14.379,29.675-23.296,49.003-23.296c35.285,0,64,28.715,64,64
				S335.082,426.389,299.797,426.389z"/>
			<path d="M299.797,341.055c-4.693,0-9.152,1.6-12.757,4.352c0.384,0.491,0.661,1.067,1.024,1.6
				c0.704,0.981,1.301,2.027,1.941,3.072c1.387,2.24,2.645,4.523,3.755,6.912c0.576,1.216,1.088,2.453,1.579,3.691
				c0.96,2.496,1.728,5.035,2.368,7.616c0.299,1.216,0.661,2.411,0.896,3.648c0.725,3.861,1.195,7.765,1.195,11.776
				c11.776,0,21.333-9.579,21.333-21.333C321.13,350.634,311.573,341.055,299.797,341.055z"/>
		</g>
	</g>
</g>
<g>
</g>
<g>
</g>
<g>
</g>
<g>
</g>
<g>
</g>
<g>
</g>
<g>
</g>
<g>
</g>
<g>
</g>
<g>
</g>
<g>
</g>
<g>
</g>
<g>
</g>
<g>
</g>
<g>
</g>
</svg>
