<?xml version="1.0" encoding="iso-8859-1"?>
<!-- Generator: Adobe Illustrator 16.0.0, SVG Export Plug-In . SVG Version: 6.00 Build 0)  -->
<!DOCTYPE svg PUBLIC "-//W3C//DTD SVG 1.1//EN" "http://www.w3.org/Graphics/SVG/1.1/DTD/svg11.dtd">
<svg version="1.1" id="Capa_1" xmlns="http://www.w3.org/2000/svg" xmlns:xlink="http://www.w3.org/1999/xlink" x="0px" y="0px"
	 width="20.083px" height="20.083px" viewBox="0 0 20.083 20.083" style="enable-background:new 0 0 20.083 20.083;"
	 xml:space="preserve">
<g>
	<path d="M14.132,4.4c2.2-0.247,3.957-1.044,3.957-3.096c0-0.685-0.989-1.596-2.674-1.215c-1.675,0.378-3.838,2.241-4.436,3.206
		c-0.153-0.367-0.515-0.625-0.938-0.625c-0.421,0-0.784,0.257-0.938,0.624c-0.598-0.963-2.76-2.828-4.436-3.205
		C2.983-0.291,1.994,0.62,1.994,1.305c0,2.052,1.756,2.848,3.958,3.096C6.18,4.425,6.397,4.444,6.606,4.458H2.228v15.625h6.511
		V4.458H7.814c0.612-0.049,1.059-0.181,1.28-0.399c0.148,0.379,0.515,0.649,0.946,0.649c0.433,0,0.8-0.27,0.946-0.649
		c0.222,0.218,0.669,0.35,1.28,0.399h-0.924v15.625h6.51V4.458h-4.377C13.686,4.444,13.904,4.426,14.132,4.4z M6.239,4.069
		c-1.63-0.183-2.93-0.772-2.93-2.292c0-0.507,0.733-1.182,1.981-0.9c1.451,0.327,3.405,2.167,3.405,2.674
		C8.694,4.058,7.716,4.236,6.239,4.069z M11.389,3.551c0-0.507,1.953-2.347,3.404-2.674c1.246-0.282,1.98,0.393,1.98,0.9
		c0,1.52-1.3,2.109-2.931,2.292C12.366,4.236,11.389,4.058,11.389,3.551z"/>
</g>
<g>
</g>
<g>
</g>
<g>
</g>
<g>
</g>
<g>
</g>
<g>
</g>
<g>
</g>
<g>
</g>
<g>
</g>
<g>
</g>
<g>
</g>
<g>
</g>
<g>
</g>
<g>
</g>
<g>
</g>
</svg>
