<svg xmlns="http://www.w3.org/2000/svg" width="18.721" height="16.316" viewBox="6.842 8.044 18.721 16.316"><g data-name="Group 385"><path d="M6.842 16.47c.107-.344.347-.588.594-.833 2.251-2.246 4.498-4.496 6.748-6.742.941-.94 2.333-1.122 3.472-.444.206.123.395.285.568.455.626.613 1.243 1.237 1.863 1.857.046.046.094.09.173.164 0-.392-.004-.749 0-1.105.008-.474.295-.879.719-1.021.718-.244 1.426.267 1.431 1.043.007 1.017.005 2.034-.001 3.05 0 .141.04.237.14.334.882.874 1.76 1.754 2.637 2.634.408.41.487.902.224 1.362a1.072 1.072 0 0 1-1.581.303 2.64 2.64 0 0 1-.229-.21c-2.292-2.29-4.584-4.581-6.874-6.874-.216-.217-.455-.336-.752-.214a1.045 1.045 0 0 0-.317.237 4990.571 4990.571 0 0 0-6.903 6.898c-.323.323-.69.471-1.14.344-.344-.097-.576-.325-.705-.658-.02-.049-.045-.095-.067-.142v-.439Z" fill="#8d70db" fill-rule="evenodd" data-name="Path 168"/><path d="M11.375 24.36c-.15-.025-.301-.04-.448-.074a1.924 1.924 0 0 1-1.488-1.845c-.007-1.515 0-3.031-.005-4.549 0-.207.095-.355.234-.493 1.518-1.515 3.034-3.03 4.55-4.547l1.526-1.523c.32-.32.592-.32.912-.001 2.025 2.023 4.05 4.048 6.076 6.07.162.16.236.336.235.568-.006 1.479.001 2.96-.005 4.44a1.93 1.93 0 0 1-1.56 1.898c-.124.025-.25.038-.377.056h-3.07c-.005-.085-.013-.17-.013-.255L17.94 19.8v-.225h-3.484V24.105c0 .086-.008.17-.012.255h-3.07Z" fill="#8d70db" fill-rule="evenodd" data-name="Path 167"/></g></svg>