<svg xmlns="http://www.w3.org/2000/svg" width="28.694" height="25.067" viewBox="10.19 12.004 28.694 25.067"><g data-name="Group 355"><path d="M14.668 15.592a3.074 3.074 0 0 0-3.075 3.11c.006 1.693 1.411 3.081 3.1 3.066a3.092 3.092 0 0 0 3.062-3.132c-.009-1.679-1.398-3.05-3.087-3.044Z" fill="#3b55ff" fill-rule="evenodd" data-name="Path 134"/><path d="M34.406 15.592a3.076 3.076 0 0 0-3.086 3.072c-.003 1.716 1.387 3.111 3.09 3.104 1.685-.007 3.067-1.386 3.072-3.066a3.076 3.076 0 0 0-3.076-3.11Z" fill="#3b55ff" fill-rule="evenodd" data-name="Path 133"/><path d="M31.39 24.503c.346.445.698.855 1.003 1.298.836 1.214 1.262 2.584 1.326 4.038.075 1.695.054 3.395.06 5.093.001.222.058.296.275.294 1.064-.007 2.128.01 3.192-.011.955-.02 1.636-.741 1.637-1.697.002-2.034.003-4.07 0-6.104a3.763 3.763 0 0 0-3.49-3.731c-.865-.06-1.734-.086-2.59.109-.53.119-.99.371-1.414.71Z" fill="#3b55ff" fill-rule="evenodd" data-name="Path 132"/><path d="M19.663 16.9a4.885 4.885 0 0 0 4.891 4.868c2.686-.008 4.86-2.203 4.858-4.902a4.867 4.867 0 0 0-4.89-4.862 4.867 4.867 0 0 0-4.86 4.895Z" fill="#3b55ff" fill-rule="evenodd" data-name="Path 131"/><path d="M24.853 37.014c1.737 0 3.473.006 5.21-.002 1.03-.005 1.802-.633 2.009-1.606.015-.073.026-.148.027-.222.02-1.279.056-2.558.05-3.836-.008-1.235-.1-2.47-.605-3.617-.948-2.156-2.629-3.427-4.905-3.93-1.114-.245-2.242-.17-3.373-.129-1.353.05-2.535.513-3.575 1.337-1.764 1.396-2.71 3.214-2.718 5.486-.004 1.466-.008 2.932.001 4.398.01 1.339.656 2.024 2 2.065 1.96.058 3.92.077 5.878.113l.001-.057Z" fill="#3b55ff" fill-rule="evenodd" data-name="Path 130"/><path d="M10.19 33.828c.096.21.166.438.293.628.335.5.824.752 1.422.76 1.027.012 2.054 0 3.082.01.242.003.31-.075.309-.322a177.28 177.28 0 0 1-.005-4.202c.031-2.32.672-4.412 2.353-6.1.019-.018.028-.045.05-.08-.553-.486-1.2-.782-1.919-.816-.835-.04-1.69-.077-2.51.049-1.573.24-2.733 1.478-3.022 3.055-.008.044-.035.084-.053.125v6.893Z" fill="#3b55ff" fill-rule="evenodd" data-name="Path 129"/></g></svg>