<svg xmlns="http://www.w3.org/2000/svg" width="17.51" height="17.513" viewBox="7.447 7.446 17.51 17.513"><g data-name="Group 381"><path d="M22.381 17.535c-.443 0-.888.013-1.332-.002-.687-.024-1.25-.632-1.25-1.332 0-.7.563-1.319 1.25-1.332a71.422 71.422 0 0 1 2.647 0c.709.013 1.26.614 1.261 1.33 0 .717-.552 1.31-1.26 1.334-.438.016-.877.003-1.316.003Z" fill="#32c0d9" fill-rule="evenodd" data-name="Path 162"/><path d="M9.913 18.573h2.693v3.116c0 .385.192.578.577.579.98.002 1.96-.003 2.94.002.718.003 1.244.41 1.394 1.07.181.799-.449 1.607-1.269 1.613-1.07.007-2.142.006-3.213 0-1.455-.006-2.791-1.125-3.052-2.554a4.275 4.275 0 0 1-.067-.73c-.007-1.025-.003-2.05-.003-3.096Z" fill="#32c0d9" fill-rule="evenodd" data-name="Path 161"/><path d="M18.425 7.446c.17.04.343.073.51.12 1.41.41 2.38 1.738 2.32 3.176a3.205 3.205 0 0 1-2.602 3.036c-.494.097-1.023.076-1.414-.06.857-.853 1.324-1.873 1.323-3.082-.002-1.207-.467-2.222-1.334-3.083l.48-.107h.717Z" fill="#32c0d9" fill-rule="evenodd" data-name="Path 160"/><path d="M14.698 7.446c.304.086.623.14.912.264a3.183 3.183 0 0 1 1.92 3.286 3.214 3.214 0 0 1-2.663 2.802c-1.801.309-3.52-1.01-3.696-2.837-.165-1.725 1.008-3.22 2.732-3.484.026-.004.05-.02.076-.031h.719Z" fill="#32c0d9" fill-rule="evenodd" data-name="Path 159"/><path d="M7.447 15.96c.086-.183.148-.382.262-.546a1.24 1.24 0 0 1 1.01-.55c.069-.003.137-.003.206-.003h10.234c-.1.245-.22.472-.287.714a2.356 2.356 0 0 0 2.263 2.986c.444.003.888.001 1.344.001v4.58a1.8 1.8 0 0 1-1.8 1.8h-2.502c.011-.028.02-.058.035-.085.882-1.504.023-3.316-1.702-3.585-.123-.02-.25-.015-.375-.015-.77-.002-1.539-.001-2.308-.001h-.204v-3.009c0-.544-.16-.706-.698-.706h-4c-.79 0-1.22-.319-1.456-1.076-.003-.01-.014-.016-.022-.026v-.478Z" fill="#32c0d9" fill-rule="evenodd" data-name="Path 158"/></g></svg>