<svg xmlns="http://www.w3.org/2000/svg" width="13.881" height="17.557" viewBox="9.261 7.424 13.881 17.557"><g data-name="Group 387"><path d="M9.261 11.143a3.715 3.715 0 0 0 3.727 3.712c2.04-.009 3.713-1.69 3.705-3.723a3.724 3.724 0 0 0-3.735-3.708 3.71 3.71 0 0 0-3.697 3.72Z" fill="#5a92ed" fill-rule="evenodd" data-name="Path 170"/><path d="M19.536 24.827a.592.592 0 0 0 .033-.863c-.309-.31-.7-.704-.927-.936-.283-.289-.284-.686-.016-.945.265-.257.646-.245.934.03.183.176.355.365.547.529.917.79 2.355.474 2.865-.625a1.861 1.861 0 0 0-.311-2.027c-.148-.16-.312-.305-.456-.47a.274.274 0 0 1-.06-.206c.096-.448.023-.86-.258-1.22-1.51-1.94-3.023-3.878-4.536-5.817-.007-.008-.019-.013-.044-.032-.552 1.595-1.624 2.67-3.236 3.233.055.046.1.088.15.125 1.867 1.46 3.737 2.915 5.602 4.378.408.32.846.444 1.354.323.044-.012.113.012.148.045.151.14.298.286.438.437a.651.651 0 0 1-.006.91.65.65 0 0 1-.896.012c-.194-.171-.368-.365-.56-.54a1.834 1.834 0 0 0-2.09-.254 1.843 1.843 0 0 0-.96 1.859c.057.445.248.816.565 1.129.303.3.603.601.903.904a.59.59 0 0 0 .805.031l.012-.01Z" fill="#5a92ed" fill-rule="evenodd" data-name="Path 169"/></g></svg>