<svg xmlns="http://www.w3.org/2000/svg" width="17.632" height="17.627" viewBox="7.386 7.388 17.632 17.627"><g data-name="Group 377"><path d="M20.666 7.388c2.201.004 3.925 1.409 4.272 3.315.257 1.409-.107 2.655-1.11 3.681a276.5 276.5 0 0 1-3.82 3.822c-.705.692-1.565 1.051-2.554 1.125-1.225.092-2.266-.3-3.15-1.13-.635-.593-.483-1.58.293-1.927.428-.19.844-.138 1.214.15.268.208.52.427.863.513.604.15 1.157.054 1.622-.362.405-.363.781-.76 1.167-1.145.878-.874 1.756-1.748 2.63-2.627.638-.641.737-1.592.244-2.292a1.756 1.756 0 0 0-2.664-.262c-.59.56-1.156 1.148-1.733 1.723-.154.154-.312.305-.461.463-.118.124-.25.154-.406.093-.627-.246-1.279-.345-1.95-.363-.091-.003-.218-.091-.26-.175-.038-.076.01-.201.036-.3.012-.044.065-.077.102-.113.974-.973 1.949-1.946 2.922-2.92.825-.825 1.816-1.257 2.743-1.269Z" fill="#ff9200" fill-rule="evenodd" data-name="Path 153"/><path d="m7.386 20.505.1-.484a4.115 4.115 0 0 1 1.15-2.074l3.638-3.64c.683-.684 1.498-1.117 2.46-1.22 1.361-.147 2.542.255 3.48 1.265.401.43.355 1.108-.049 1.534-.392.414-1.1.471-1.555.116-.257-.2-.495-.423-.822-.515-.674-.191-1.281-.067-1.78.424a323.166 323.166 0 0 0-3.762 3.76 1.751 1.751 0 0 0 .388 2.766c.683.39 1.543.266 2.134-.313.392-.386.779-.78 1.168-1.17.32-.32.644-.638.96-.963.131-.136.27-.176.447-.107a5.235 5.235 0 0 0 1.916.347c.135 0 .255.052.282.178.022.098-.027.212-.048.318-.003.014-.021.026-.033.039-1.104 1.095-2.191 2.207-3.317 3.278-.572.545-1.298.825-2.085.935-.042.006-.084.024-.126.036h-.861c-.133-.025-.267-.047-.399-.08-1.63-.402-2.695-1.395-3.153-3.02-.057-.202-.089-.412-.133-.618v-.792Z" fill="#ff9200" fill-rule="evenodd" data-name="Path 152"/></g></svg>