<svg xmlns="http://www.w3.org/2000/svg" width="19.708" height="14.001" viewBox="6.348 9.201 19.708 14.001"><g data-name="Group 379"><path d="M21.703 21.324c.615 0 1.203 0 1.791.002.037 0 .101.027.106.05.068.348.183.698.176 1.046-.01.431-.396.744-.836.778a.907.907 0 0 1-.92-.641c-.115-.398-.207-.802-.317-1.235Z" fill="#868686" fill-rule="evenodd" data-name="Path 157"/><path d="M8.806 21.332h1.898c-.114.438-.203.869-.341 1.284-.148.445-.63.67-1.09.55a.904.904 0 0 1-.656-1.014c.048-.274.125-.545.19-.82Z" fill="#868686" fill-rule="evenodd" data-name="Path 156"/><path d="M16.105 9.205c1.821 0 3.643-.004 5.464 0a2.573 2.573 0 0 1 2.425 1.668c.217.569.192 1.143.055 1.72-.009.038-.06.084-.1.094-1.055.272-1.6.983-1.782 2.027-.118.674-.26 1.343-.395 2.015-.082.408-.273.563-.695.563H11.34c-.448 0-.629-.161-.716-.608-.151-.773-.298-1.545-.466-2.313-.197-.901-.954-1.582-1.861-1.716-.059-.009-.142-.067-.158-.12a2.577 2.577 0 0 1 2.443-3.327c1.84-.013 3.681-.003 5.522-.003Z" fill="#868686" fill-rule="evenodd" data-name="Path 155"/><path d="M26.056 15.28c-.025.248-.055.495-.072.742-.054.785-.106 1.573-.154 2.36a2.471 2.471 0 0 1-2.458 2.325c-3.099.007-6.197.002-9.295.003H9.113c-1.277-.002-2.281-.823-2.508-2.079-.07-.396-.068-.804-.096-1.207-.05-.729-.088-1.46-.15-2.187-.052-.624.068-1.178.563-1.598.944-.802 2.4-.3 2.654.916.161.777.313 1.555.466 2.334.122.625.577 1.015 1.21 1.015 3.304.002 6.608.002 9.911 0 .612 0 1.077-.39 1.197-.987.156-.772.31-1.543.463-2.315.155-.782.803-1.343 1.573-1.356.779-.012 1.434.51 1.624 1.293.007.03.024.058.036.088v.654Z" fill="#868686" fill-rule="evenodd" data-name="Path 154"/></g></svg>