<?xml version="1.0" encoding="iso-8859-1"?>
<!-- Generator: Adobe Illustrator 19.0.0, SVG Export Plug-In . SVG Version: 6.00 Build 0)  -->
<svg version="1.1" id="Layer_1" xmlns="http://www.w3.org/2000/svg" xmlns:xlink="http://www.w3.org/1999/xlink" x="0px" y="0px"
	 viewBox="0 0 512 512" style="enable-background:new 0 0 512 512;" xml:space="preserve">
<g>
	<g>
		<path d="M200.348,233.739c-9.206,0-16.696,7.49-16.696,16.696c0,9.206,7.49,16.696,16.696,16.696s16.696-7.49,16.696-16.696
			C217.043,241.229,209.554,233.739,200.348,233.739z"/>
	</g>
</g>
<g>
	<g>
		<path d="M311.652,367.304c-9.206,0-16.696,7.49-16.696,16.696s7.49,16.696,16.696,16.696s16.696-7.49,16.696-16.696
			S320.858,367.304,311.652,367.304z"/>
	</g>
</g>
<g>
	<g>
		<path d="M256,122.435c-107.402,0-194.783,87.381-194.783,194.783S148.598,512,256,512s194.783-87.381,194.783-194.783
			S363.402,122.435,256,122.435z M150.261,250.435c0-27.619,22.468-50.087,50.087-50.087c27.619,0,50.087,22.468,50.087,50.087
			c0,27.619-22.468,50.087-50.087,50.087C172.729,300.522,150.261,278.054,150.261,250.435z M196.968,399.87
			c-3.261,3.261-7.533,4.892-11.804,4.892s-8.544-1.631-11.804-4.892c-6.521-6.521-6.521-17.087,0-23.609l141.663-141.674
			c6.521-6.521,17.087-6.521,23.609,0c6.521,6.521,6.521,17.087,0,23.609L196.968,399.87z M311.652,434.087
			c-27.619,0-50.087-22.468-50.087-50.087s22.468-50.087,50.087-50.087c27.619,0,50.087,22.468,50.087,50.087
			S339.271,434.087,311.652,434.087z"/>
	</g>
</g>
<g>
	<g>
		<path d="M322.783,66.783h-5.833c0.175-1.843,0.268-3.699,0.268-5.565C317.217,27.468,289.75,0,256,0s-61.217,27.468-61.217,61.217
			c0,1.867,0.094,3.722,0.268,5.565h-5.833c-9.217,0-16.696,7.479-16.696,16.696v33.44c25.717-10.759,53.905-16.745,83.478-16.745
			c29.57,0,57.761,5.986,83.478,16.745v-33.44C339.478,74.261,332,66.783,322.783,66.783z M283.196,66.783h-54.392
			c-0.424-1.848-0.63-3.706-0.63-5.565c0-15.348,12.478-27.826,27.826-27.826s27.826,12.478,27.826,27.826
			C283.826,63.076,283.619,64.935,283.196,66.783z"/>
	</g>
</g>
<g>
</g>
<g>
</g>
<g>
</g>
<g>
</g>
<g>
</g>
<g>
</g>
<g>
</g>
<g>
</g>
<g>
</g>
<g>
</g>
<g>
</g>
<g>
</g>
<g>
</g>
<g>
</g>
<g>
</g>
</svg>
