<svg xmlns="http://www.w3.org/2000/svg" width="20.909" height="16.247"><path d="M20.494 4.339c-.442-1.423-1.163-2.666-2.418-3.532-.969-.668-2.048-.933-3.215-.75-1.412.22-2.54.962-3.474 2.01-.333.375-.625.783-.948 1.19-.071-.102-.145-.205-.217-.31a7.642 7.642 0 0 0-1.583-1.72C7.716.504 6.689.035 5.503.007 4.077-.028 2.896.545 1.943 1.58.952 2.656.423 3.962.165 5.386.093 5.778.054 6.177 0 6.573V7.88l.052.46c.182 1.535.602 2.994 1.386 4.334.752 1.285 1.726 2.353 3.075 3.041 1.725.88 3.666.659 5.142-.602.288-.244.562-.508.85-.77.03.037.097.112.162.189 1.547 1.845 4.086 2.242 6.132.968 1.36-.848 2.32-2.04 3.011-3.462a10.981 10.981 0 0 0 1.069-4.052c.09-1.24-.017-2.458-.385-3.647ZM8.98 10.669c.002.013-.004.026-.009.05-.548-1.225-1.47-1.844-2.816-1.673-1.056.134-1.85.925-2.093 1.969-.205.887.167 1.972.86 2.463.058-.321.243-.474.59-.493.302-.016.578.068.824.245.34.247.384.51.128.857a2.472 2.472 0 0 0 1.883-.742c.518-.514.746-1.156.785-1.882.044.152.077.308.133.454.148.394.309.783.456 1.176.025.067.04.172.007.222-.592.867-1.355 1.504-2.41 1.714-.87.171-1.693-.002-2.457-.431-1.27-.713-2.122-1.807-2.743-3.095a9.753 9.753 0 0 1-.968-4.521c.034-1.48.37-2.882 1.23-4.118.596-.857 1.376-1.463 2.427-1.656.86-.157 1.664.027 2.416.445C8.37 2.29 9.16 3.262 9.766 4.398c.033.062.012.171-.02.244-.338.79-.58 1.608-.726 2.454-.205 1.189-.235 2.38-.04 3.573Zm-.922-.228c-.067.22-.254.287-.45.332-.06.013-.122.01-.2.014-.344-.015-.667-.123-.904-.407-.25-.3-.147-.639.228-.743.426-.117.806-.003 1.132.283.153.134.263.3.194.52Zm11.01.427c-.538 1.39-1.344 2.596-2.586 3.463-.932.649-1.956.937-3.088.652-.793-.2-1.422-.665-1.934-1.291-.741-.907-1.145-1.966-1.33-3.11-.081-.508-.112-1.024-.145-1.34.052-2.367.617-4.36 1.97-6.087.659-.839 1.457-1.509 2.497-1.825 1.47-.448 2.712-.03 3.72 1.087.86.953 1.28 2.116 1.477 3.368.275 1.747.055 3.444-.58 5.083Z" fill-rule="evenodd" data-name="Path 165"/></svg>