<svg xmlns="http://www.w3.org/2000/svg" width="20.088" height="12.855" viewBox="6.158 9.774 20.088 12.855"><path d="M26.246 20.937v.47c-.018.054-.038.109-.055.165-.195.627-.681 1.012-1.333 1.055-.668.043-1.271-.39-1.47-1.054-.184-.621.1-1.336.672-1.645.132-.071.164-.153.164-.291-.005-1.392-.003-2.783-.003-4.174 0-.069-.006-.137-.01-.22-.08.022-.137.033-.191.052-.613.202-1.223.41-1.838.603-.145.045-.19.108-.19.26.007 1.226.005 2.455.003 3.682 0 .091-.005.184-.02.273a.54.54 0 0 1-.67.432c-.288-.08-.57-.187-.855-.274a15.845 15.845 0 0 0-3.724-.68 15.59 15.59 0 0 0-6.231.908.843.843 0 0 1-.361.06c-.301-.034-.476-.27-.476-.615-.001-1.26-.003-2.52.003-3.78 0-.137-.04-.198-.166-.238-.28-.087-.556-.187-.833-.282l-2.05-.708c-.35-.122-.514-.382-.435-.683.064-.24.255-.348.463-.442 2.94-1.315 5.88-2.63 8.818-3.952a.835.835 0 0 1 .746.007c2.841 1.28 5.687 2.55 8.531 3.825.16.072.325.138.473.231.259.16.327.438.212.714a.842.842 0 0 0-.07.317c-.003 1.476.004 2.952-.007 4.428-.003.283.02.49.312.644.346.183.477.553.591.912Z" fill="#0dc700" fill-rule="evenodd" data-name="Path 173"/></svg>