<svg xmlns="http://www.w3.org/2000/svg" width="20.728" height="20.718" viewBox="4.831 4.843 20.728 20.718"><path d="M16.209 4.843c0 .307.004.593-.001.878-.009.527-.386.92-.884.922-.49.004-.884-.391-.9-.912-.01-.295-.002-.591-.002-.887-4.469.13-9.124 4.018-9.56 9.282.346 0 .691-.011 1.035.003.53.022.92.413.918.9-.002.509-.397.876-.953.884-.247.004-.494 0-.741 0h-.29c.196 4.503 3.893 9.154 9.47 9.648v-1.028c.004-.601.36-.991.902-.988.53.004.881.39.885.975.002.344 0 .688 0 1.034 5.057-.392 9.118-4.56 9.47-9.519-.293 0-.586.003-.878 0-.585-.006-.98-.364-.978-.885 0-.505.387-.876.948-.898.295-.01.591-.002.888-.002-.288-4.56-4.124-8.942-9.329-9.407Zm-.997 9.106c.1-.118.165-.206.242-.283 1.39-1.393 2.782-2.785 4.175-4.176.083-.084.168-.17.263-.239a.877.877 0 0 1 1.373.436c.13.381.003.697-.268.968l-5.098 5.1a1.423 1.423 0 0 1-.18.153c-.333.237-.753.275-1.042-.006-1.085-1.053-2.17-2.11-3.2-3.215-.451-.481-.076-1.272.58-1.374.36-.056.629.099.87.342.744.752 1.492 1.499 2.285 2.294Z" fill="#0dc700" fill-rule="evenodd" data-name="Path 137"/></svg>