<svg xmlns="http://www.w3.org/2000/svg" width="18.516" height="18.509" viewBox="6.944 6.948 18.516 18.509"><path d="M16.209 25.457c-5.1.006-9.254-4.124-9.265-9.213-.012-5.135 4.148-9.315 9.251-9.296a9.253 9.253 0 0 1 9.265 9.26c.02 5.086-4.135 9.242-9.251 9.249Zm-.023-4.17.008.051c.475-.076.963-.108 1.422-.238 1.462-.413 2.5-1.336 3.133-2.713.135-.296.044-.616-.195-.739-.271-.138-.526-.015-.675.331-.702 1.63-2.246 2.604-4.251 2.367-1.495-.177-2.55-1-3.156-2.384-.142-.326-.379-.444-.645-.324-.252.112-.329.37-.2.68a4.843 4.843 0 0 0 4.559 2.968Zm2.918-8.775a.907.907 0 0 0-.927.911c0 .51.396.914.896.92a.923.923 0 0 0 .946-.9.923.923 0 0 0-.915-.931Zm-4.88.908a.902.902 0 0 0-.929-.907.922.922 0 0 0-.911.91.925.925 0 0 0 .948.92.904.904 0 0 0 .892-.923Z" fill="#f5bc1f" fill-rule="evenodd" data-name="Path 151"/></svg>