<svg xmlns="http://www.w3.org/2000/svg" width="9.27" height="12.631" viewBox="0 6.216 9.27 12.631"><path d="M0 9.177c.05-.323.087-.648.156-.968.142-.659.302-1.314.458-1.989H.8c2.562 0 5.123.001 7.685-.004.16 0 .206.044.236.202.143.75.338 1.489.453 2.242.168 1.109.14 2.217-.258 3.287-.525 1.407-1.559 2.207-3.009 2.498-.179.035-.362.047-.54.083-.05.01-.125.073-.125.113-.005 1.01-.001 2.022.002 3.032 0 .005.007.01.029.037h.183l1.856.001c.365 0 .611.237.607.577-.004.33-.25.56-.607.56h-5.3c-.346 0-.605-.247-.605-.57 0-.321.259-.566.605-.567.619-.002 1.237 0 1.855 0h.215v-3.16c-.255-.04-.51-.07-.76-.126C1.503 14.02.48 12.852.118 11.06c-.05-.246-.08-.496-.119-.744V9.177Z" fill="#e5758f" fill-rule="evenodd" data-name="Path 171"/></svg>