<svg xmlns="http://www.w3.org/2000/svg" width="17.416" height="18.714" viewBox="7.494 6.845 17.416 18.714"><path d="M12.231 6.845c.376.067.757.111 1.127.204 1.602.403 2.83 1.31 3.628 2.769.071.13.134.145.269.108 1.03-.29 2.078-.457 3.151-.41.812.035 1.592.195 2.3.615.068.04.131.09.187.145.213.206.183.402-.103.49a2.255 2.255 0 0 1-.68.09 9.011 9.011 0 0 0-3.065.482c-.222.074-.44.162-.693.257.503.142.973.251 1.426.406 2.574.889 4.309 2.597 5.067 5.24.052.184.07.384.064.575-.005.185-.129.258-.288.168-.177-.1-.35-.223-.492-.368-1.403-1.453-3.03-2.61-4.764-3.628-.056-.033-.114-.062-.196-.107.122.308.246.58.34.865.34 1.029.31 2.057-.032 3.079-.014.04-.026.086-.052.115-.078.088-.162.17-.244.253-.09-.09-.223-.166-.26-.274-.13-.384-.218-.784-.34-1.17-.403-1.275-1.028-2.439-1.792-3.531-.018-.025-.026-.055-.057-.124-.153.358-.283.65-.402.945a29.356 29.356 0 0 0-1.638 5.471 24.182 24.182 0 0 0-.44 4.297c-.005.393-.047.777-.232 1.133-.362.695-1.068.82-1.652.294-.425-.383-.63-.873-.678-1.432a15.517 15.517 0 0 1 .035-3.17A13.447 13.447 0 0 1 13.13 16c.675-1.303 1.52-2.479 2.616-3.463.013-.011.02-.03.033-.053-.464-.217-.955-.283-1.454-.304-1.263-.052-2.499.151-3.724.421-.794.175-1.58.391-2.371.576-.15.035-.317.034-.469.007-.243-.042-.336-.236-.212-.452.102-.175.232-.343.38-.482.897-.846 1.977-1.334 3.167-1.599 1.245-.276 2.498-.28 3.755-.087.042.007.085.01.127.014.017.001.035-.005.077-.01-.137-.328-.357-.582-.605-.812-.8-.746-1.745-1.276-2.705-1.78-.22-.116-.444-.227-.662-.348a1.262 1.262 0 0 1-.25-.182c-.241-.228-.189-.431.133-.53l.242-.071h1.023Z" fill="#77300a" fill-rule="evenodd" data-name="Path 174"/></svg>