<svg xmlns="http://www.w3.org/2000/svg" width="24.521" height="31.104" viewBox="14.51 9.73 24.521 31.104"><path d="M22.633 40.834h2.126c.076-.02.152-.047.23-.057.509-.066 1.024-.104 1.53-.197 2.708-.498 4.894-1.822 6.432-4.141 1.653-2.491 3.296-4.989 4.942-7.484.482-.73 1.044-1.42 1.139-2.338v-.121c-.02-.107-.048-.213-.06-.32-.11-.916-.905-1.683-1.82-1.755-.865-.069-1.576.245-2.096.924-.74.964-1.442 1.953-2.161 2.932-.123.166-.249.33-.425.566V14.398c0-.192.006-.385-.006-.577a1.785 1.785 0 0 0-2.068-1.67c-.923.14-1.52.884-1.519 1.893.001 2.855.002 5.71 0 8.566 0 .15-.008.307-.049.45-.073.26-.26.4-.535.407-.275.006-.471-.127-.555-.383a1.572 1.572 0 0 1-.056-.478c-.003-3.615-.002-7.23-.003-10.844 0-.132-.001-.263-.009-.395-.05-.845-.79-1.582-1.636-1.633-1.107-.067-1.94.738-1.941 1.888-.002 3.665 0 7.33-.003 10.996 0 .16-.006.33-.058.477-.146.422-.71.519-.974.159a.908.908 0 0 1-.15-.506c-.005-3.29-.006-6.581.005-9.872.002-.866-.471-1.606-1.238-1.86-1.22-.401-2.377.496-2.378 1.852-.001 2.633.002 5.266.002 7.898 0 1.083.003 2.167-.001 3.25-.002.391-.233.647-.571.658-.346.01-.587-.254-.6-.658v-.153c0-2.349 0-4.698-.002-7.047 0-.262-.008-.526-.044-.786a1.78 1.78 0 0 0-1.408-1.488 1.815 1.815 0 0 0-1.912.88c-.244.434-.251.905-.25 1.383.003 5.113-.005 10.227.009 15.34.001.665.059 1.337.169 1.991.58 3.448 2.945 5.838 6.36 6.456.526.095 1.056.162 1.584.242Z" fill="#ff9200" fill-rule="evenodd" data-name="Path 135"/></svg>