<?xml version="1.0" encoding="iso-8859-1"?>
<!-- Generator: Adobe Illustrator 16.0.0, SVG Export Plug-In . SVG Version: 6.00 Build 0)  -->
<!DOCTYPE svg PUBLIC "-//W3C//DTD SVG 1.1//EN" "http://www.w3.org/Graphics/SVG/1.1/DTD/svg11.dtd">
<svg version="1.1" id="Capa_1" xmlns="http://www.w3.org/2000/svg" xmlns:xlink="http://www.w3.org/1999/xlink" x="0px" y="0px"
	 width="476.91px" height="476.909px" viewBox="0 0 476.91 476.909" style="enable-background:new 0 0 476.91 476.909;"
	 xml:space="preserve">
<g>
	<g>
		<path d="M62.802,142.287h121.682c4.45,0,10.95-3.805,13.32-7.999l24.816-41.066H62.802C28.12,93.222,0,121.342,0,156.026v20.779
			C13.266,156.086,36.425,142.287,62.802,142.287z"/>
		<path d="M414.105,67.708H266.913c-8.681,0-19.151,6.125-23.399,13.685l-7.147,11.828l-28.489,47.157
			c-4.246,7.558-14.719,13.684-23.393,13.684H62.802C28.12,154.062,0,182.183,0,216.865v115.794v13.737
			c0,34.685,28.12,62.805,62.802,62.805h351.303c34.685,0,62.805-28.12,62.805-62.805v-13.737V156.026v-25.515
			C476.91,95.829,448.79,67.708,414.105,67.708z M163.358,204.055c0-7.56,7.498-13.684,16.743-13.684h117.231
			c9.245,0,16.743,6.131,16.743,13.684v157.374c0,7.562-7.498,13.686-16.743,13.686h-89.015v-33.073c0-3.25-2.637-5.888-5.887-5.888
			h-39.073V204.055z M196.542,375.122h-1.781l-30.555-27.19h32.336V375.122z"/>
		<path d="M209.909,311.945c2.717,0.112,5.189-1.476,6.029-4.036l10.343-31.474l3.552-10.828l1.431,10.611l6.089,45.155
			c0.389,2.882,2.822,5.046,5.731,5.09c0.036,0,0.072,0,0.104,0c2.866,0,5.311-2.063,5.799-4.889l7.743-45.221
			c1.046,1.828,2.993,2.979,5.109,2.979h34.864c3.25,0,5.887-2.638,5.887-5.892c0-3.25-2.637-5.887-5.887-5.887h-31.326
			l-6.355-11.942c-1.17-2.224-3.595-3.475-6.132-3.062c-2.477,0.409-4.44,2.341-4.868,4.817l-3.126,18.27l-1.03,5.999l-0.798-5.915
			l-5.005-37.103c-0.363-2.717-2.567-4.819-5.294-5.071c-2.771-0.252-5.282,1.422-6.127,4.029l-12.946,39.399l-1.557,4.725
			l-0.794-4.633l-2.919-17.088c-0.431-2.536-2.465-4.5-5.016-4.845c-2.537-0.385-5.025,1.006-6.125,3.334l-6.614,14.114H178.32
			c-3.252,0-5.889,2.637-5.889,5.887c0,3.254,2.637,5.892,5.889,5.892h16.118c2.284,0,4.366-1.318,5.328-3.391l0.238-0.489
			l4.546,26.586C205.001,309.729,207.218,311.745,209.909,311.945z"/>
	</g>
</g>
<g>
</g>
<g>
</g>
<g>
</g>
<g>
</g>
<g>
</g>
<g>
</g>
<g>
</g>
<g>
</g>
<g>
</g>
<g>
</g>
<g>
</g>
<g>
</g>
<g>
</g>
<g>
</g>
<g>
</g>
</svg>
