<?xml version="1.0" encoding="iso-8859-1"?>
<!-- Generator: Adobe Illustrator 19.0.0, SVG Export Plug-In . SVG Version: 6.00 Build 0)  -->
<svg version="1.1" id="Layer_1" xmlns="http://www.w3.org/2000/svg" xmlns:xlink="http://www.w3.org/1999/xlink" x="0px" y="0px"
	 viewBox="0 0 512 512" style="enable-background:new 0 0 512 512;" xml:space="preserve">
<g>
	<g>
		<g>
			<path d="M472.178,34.62H39.822C17.829,34.62,0,52.449,0,74.442v45.263c0,3.141,2.547,5.689,5.689,5.689h500.622
				c3.141,0,5.689-2.547,5.689-5.689V74.442C512,52.449,494.171,34.62,472.178,34.62z M71.805,92.844
				c-7.09,0-12.836-5.747-12.836-12.836s5.747-12.836,12.836-12.836c7.089,0,12.836,5.747,12.836,12.836
				C84.642,87.097,78.895,92.844,71.805,92.844z M112.957,92.844c-7.09,0-12.836-5.747-12.836-12.836s5.747-12.836,12.836-12.836
				s12.836,5.747,12.836,12.836C125.793,87.097,120.046,92.844,112.957,92.844z M154.109,92.844
				c-7.089,0-12.836-5.747-12.836-12.836s5.747-12.836,12.836-12.836c7.09,0,12.836,5.747,12.836,12.836
				C166.945,87.097,161.198,92.844,154.109,92.844z"/>
			<path d="M506.311,148.15H5.689c-3.143,0-5.689,2.547-5.689,5.689v283.719c0,21.993,17.829,39.822,39.822,39.822h432.356
				c21.993,0,39.822-17.829,39.822-39.822V153.839C512,150.697,509.454,148.15,506.311,148.15z M343.925,419.6
				c0,9.993-11.041,14.903-18.352,9.232l-69.576-53.98l-69.569,53.98c-7.32,5.68-18.352,0.775-18.352-9.361V286.573
				c0-3.141,2.547-5.689,5.689-5.689h164.473c3.143,0,5.689,2.547,5.689,5.689V419.6z M343.925,252.44
				c0,3.141-2.546,5.689-5.689,5.689H173.764c-3.141,0-5.689-2.548-5.689-5.689v-46.754c0-6.284,5.094-11.378,11.378-11.378h153.095
				c6.284,0,11.378,5.094,11.378,11.378V252.44z"/>
		</g>
	</g>
</g>
<g>
</g>
<g>
</g>
<g>
</g>
<g>
</g>
<g>
</g>
<g>
</g>
<g>
</g>
<g>
</g>
<g>
</g>
<g>
</g>
<g>
</g>
<g>
</g>
<g>
</g>
<g>
</g>
<g>
</g>
</svg>
